<?xml version="1.0" encoding="utf-8"?>
<!DOCTYPE svg PUBLIC "-//W3C//DTD SVG 1.1//EN"
"http://www.w3.org/Graphics/SVG/1.1/DTD/svg11.dtd">
<svg xmlns="http://www.w3.org/2000/svg" width="1260" height="572">
<line x1="1140.0" y1="-879.0" x2="-177.0" y2="1267.0" style="stroke:rgb(0,0,0);stroke-width:1"/>
<line x1="216.0" y1="-906.0" x2="931.0" y2="1510.0" style="stroke:rgb(0,0,0);stroke-width:1"/>
<ellipse cx="471.86159143018693" cy="506.99939050118525" rx="155.60832140922167" ry="155.60832140922167" style="stroke:rgb(0,0,0);fill:none;stroke-width:1"/>
<ellipse cx="505.42058707254637" cy="253.32482728531537" rx="51.455454793686755" ry="51.455454793686755" style="stroke:rgb(0,0,0);fill:none;stroke-width:1"/>
<line x1="432.0" y1="311.0" x2="433.0" y2="318.0" style="stroke:rgb(0,0,0);stroke-width:1"/>
<line x1="433.0" y1="318.0" x2="434.0" y2="324.0" style="stroke:rgb(0,0,0);stroke-width:1"/>
<line x1="434.0" y1="324.0" x2="435.0" y2="328.0" style="stroke:rgb(0,0,0);stroke-width:1"/>
<line x1="435.0" y1="328.0" x2="436.0" y2="332.0" style="stroke:rgb(0,0,0);stroke-width:1"/>
<line x1="436.0" y1="332.0" x2="437.0" y2="335.0" style="stroke:rgb(0,0,0);stroke-width:1"/>
<line x1="437.0" y1="335.0" x2="438.0" y2="338.0" style="stroke:rgb(0,0,0);stroke-width:1"/>
<line x1="438.0" y1="338.0" x2="439.0" y2="341.0" style="stroke:rgb(0,0,0);stroke-width:1"/>
<line x1="439.0" y1="341.0" x2="440.0" y2="344.0" style="stroke:rgb(0,0,0);stroke-width:1"/>
<line x1="440.0" y1="344.0" x2="441.0" y2="346.0" style="stroke:rgb(0,0,0);stroke-width:1"/>
<line x1="441.0" y1="346.0" x2="442.0" y2="349.0" style="stroke:rgb(0,0,0);stroke-width:1"/>
<line x1="442.0" y1="349.0" x2="443.0" y2="351.0" style="stroke:rgb(0,0,0);stroke-width:1"/>
<line x1="443.0" y1="351.0" x2="444.0" y2="353.0" style="stroke:rgb(0,0,0);stroke-width:1"/>
<line x1="444.0" y1="353.0" x2="445.0" y2="355.0" style="stroke:rgb(0,0,0);stroke-width:1"/>
<line x1="445.0" y1="355.0" x2="446.0" y2="358.0" style="stroke:rgb(0,0,0);stroke-width:1"/>
<line x1="446.0" y1="358.0" x2="448.0" y2="361.0" style="stroke:rgb(0,0,0);stroke-width:1"/>
<line x1="448.0" y1="361.0" x2="449.0" y2="363.0" style="stroke:rgb(0,0,0);stroke-width:1"/>
<line x1="449.0" y1="363.0" x2="450.0" y2="365.0" style="stroke:rgb(0,0,0);stroke-width:1"/>
<line x1="450.0" y1="365.0" x2="451.0" y2="367.0" style="stroke:rgb(0,0,0);stroke-width:1"/>
<line x1="451.0" y1="367.0" x2="453.0" y2="370.0" style="stroke:rgb(0,0,0);stroke-width:1"/>
<line x1="453.0" y1="370.0" x2="454.0" y2="372.0" style="stroke:rgb(0,0,0);stroke-width:1"/>
<line x1="454.0" y1="372.0" x2="456.0" y2="375.0" style="stroke:rgb(0,0,0);stroke-width:1"/>
<line x1="456.0" y1="375.0" x2="458.0" y2="377.0" style="stroke:rgb(0,0,0);stroke-width:1"/>
<line x1="458.0" y1="377.0" x2="459.0" y2="379.0" style="stroke:rgb(0,0,0);stroke-width:1"/>
<line x1="459.0" y1="379.0" x2="461.0" y2="382.0" style="stroke:rgb(0,0,0);stroke-width:1"/>
<line x1="461.0" y1="382.0" x2="463.0" y2="384.0" style="stroke:rgb(0,0,0);stroke-width:1"/>
<line x1="463.0" y1="384.0" x2="465.0" y2="387.0" style="stroke:rgb(0,0,0);stroke-width:1"/>
<line x1="465.0" y1="387.0" x2="467.0" y2="389.0" style="stroke:rgb(0,0,0);stroke-width:1"/>
<line x1="467.0" y1="389.0" x2="469.0" y2="391.0" style="stroke:rgb(0,0,0);stroke-width:1"/>
<line x1="469.0" y1="391.0" x2="470.0" y2="393.0" style="stroke:rgb(0,0,0);stroke-width:1"/>
<line x1="470.0" y1="393.0" x2="472.0" y2="395.0" style="stroke:rgb(0,0,0);stroke-width:1"/>
<line x1="472.0" y1="395.0" x2="474.0" y2="397.0" style="stroke:rgb(0,0,0);stroke-width:1"/>
<line x1="474.0" y1="397.0" x2="476.0" y2="399.0" style="stroke:rgb(0,0,0);stroke-width:1"/>
<line x1="476.0" y1="399.0" x2="478.0" y2="401.0" style="stroke:rgb(0,0,0);stroke-width:1"/>
<line x1="478.0" y1="401.0" x2="480.0" y2="403.0" style="stroke:rgb(0,0,0);stroke-width:1"/>
<line x1="480.0" y1="403.0" x2="482.0" y2="404.0" style="stroke:rgb(0,0,0);stroke-width:1"/>
<line x1="482.0" y1="404.0" x2="484.0" y2="406.0" style="stroke:rgb(0,0,0);stroke-width:1"/>
<line x1="484.0" y1="406.0" x2="486.0" y2="408.0" style="stroke:rgb(0,0,0);stroke-width:1"/>
<line x1="486.0" y1="408.0" x2="488.0" y2="410.0" style="stroke:rgb(0,0,0);stroke-width:1"/>
<line x1="488.0" y1="410.0" x2="490.0" y2="411.0" style="stroke:rgb(0,0,0);stroke-width:1"/>
<line x1="490.0" y1="411.0" x2="492.0" y2="413.0" style="stroke:rgb(0,0,0);stroke-width:1"/>
<line x1="492.0" y1="413.0" x2="494.0" y2="414.0" style="stroke:rgb(0,0,0);stroke-width:1"/>
<line x1="494.0" y1="414.0" x2="496.0" y2="416.0" style="stroke:rgb(0,0,0);stroke-width:1"/>
<line x1="496.0" y1="416.0" x2="498.0" y2="417.0" style="stroke:rgb(0,0,0);stroke-width:1"/>
<line x1="498.0" y1="417.0" x2="500.0" y2="418.0" style="stroke:rgb(0,0,0);stroke-width:1"/>
<line x1="500.0" y1="418.0" x2="502.0" y2="420.0" style="stroke:rgb(0,0,0);stroke-width:1"/>
<line x1="502.0" y1="420.0" x2="504.0" y2="421.0" style="stroke:rgb(0,0,0);stroke-width:1"/>
<line x1="504.0" y1="421.0" x2="506.0" y2="422.0" style="stroke:rgb(0,0,0);stroke-width:1"/>
<line x1="506.0" y1="422.0" x2="508.0" y2="423.0" style="stroke:rgb(0,0,0);stroke-width:1"/>
<line x1="508.0" y1="423.0" x2="510.0" y2="424.0" style="stroke:rgb(0,0,0);stroke-width:1"/>
<line x1="510.0" y1="424.0" x2="512.0" y2="425.0" style="stroke:rgb(0,0,0);stroke-width:1"/>
<line x1="512.0" y1="425.0" x2="514.0" y2="426.0" style="stroke:rgb(0,0,0);stroke-width:1"/>
<line x1="514.0" y1="426.0" x2="516.0" y2="427.0" style="stroke:rgb(0,0,0);stroke-width:1"/>
<line x1="516.0" y1="427.0" x2="518.0" y2="428.0" style="stroke:rgb(0,0,0);stroke-width:1"/>
<line x1="518.0" y1="428.0" x2="520.0" y2="429.0" style="stroke:rgb(0,0,0);stroke-width:1"/>
<line x1="520.0" y1="429.0" x2="522.0" y2="430.0" style="stroke:rgb(0,0,0);stroke-width:1"/>
<line x1="522.0" y1="430.0" x2="524.0" y2="431.0" style="stroke:rgb(0,0,0);stroke-width:1"/>
<line x1="524.0" y1="431.0" x2="526.0" y2="432.0" style="stroke:rgb(0,0,0);stroke-width:1"/>
<line x1="526.0" y1="432.0" x2="529.0" y2="433.0" style="stroke:rgb(0,0,0);stroke-width:1"/>
<line x1="529.0" y1="433.0" x2="532.0" y2="434.0" style="stroke:rgb(0,0,0);stroke-width:1"/>
<line x1="532.0" y1="434.0" x2="535.0" y2="435.0" style="stroke:rgb(0,0,0);stroke-width:1"/>
<line x1="535.0" y1="435.0" x2="538.0" y2="435.0" style="stroke:rgb(0,0,0);stroke-width:1"/>
<line x1="538.0" y1="435.0" x2="540.0" y2="436.0" style="stroke:rgb(0,0,0);stroke-width:1"/>
<line x1="540.0" y1="436.0" x2="543.0" y2="437.0" style="stroke:rgb(0,0,0);stroke-width:1"/>
<line x1="543.0" y1="437.0" x2="546.0" y2="437.0" style="stroke:rgb(0,0,0);stroke-width:1"/>
<line x1="546.0" y1="437.0" x2="548.0" y2="438.0" style="stroke:rgb(0,0,0);stroke-width:1"/>
<line x1="548.0" y1="438.0" x2="551.0" y2="438.0" style="stroke:rgb(0,0,0);stroke-width:1"/>
<line x1="551.0" y1="438.0" x2="554.0" y2="438.0" style="stroke:rgb(0,0,0);stroke-width:1"/>
<line x1="554.0" y1="438.0" x2="556.0" y2="439.0" style="stroke:rgb(0,0,0);stroke-width:1"/>
<line x1="556.0" y1="439.0" x2="559.0" y2="439.0" style="stroke:rgb(0,0,0);stroke-width:1"/>
<line x1="559.0" y1="439.0" x2="562.0" y2="439.0" style="stroke:rgb(0,0,0);stroke-width:1"/>
<line x1="562.0" y1="439.0" x2="565.0" y2="439.0" style="stroke:rgb(0,0,0);stroke-width:1"/>
<line x1="565.0" y1="439.0" x2="568.0" y2="439.0" style="stroke:rgb(0,0,0);stroke-width:1"/>
<line x1="568.0" y1="439.0" x2="570.0" y2="438.0" style="stroke:rgb(0,0,0);stroke-width:1"/>
<line x1="570.0" y1="438.0" x2="573.0" y2="438.0" style="stroke:rgb(0,0,0);stroke-width:1"/>
<line x1="573.0" y1="438.0" x2="576.0" y2="438.0" style="stroke:rgb(0,0,0);stroke-width:1"/>
<line x1="576.0" y1="438.0" x2="578.0" y2="437.0" style="stroke:rgb(0,0,0);stroke-width:1"/>
<line x1="578.0" y1="437.0" x2="581.0" y2="437.0" style="stroke:rgb(0,0,0);stroke-width:1"/>
<line x1="581.0" y1="437.0" x2="583.0" y2="436.0" style="stroke:rgb(0,0,0);stroke-width:1"/>
<line x1="583.0" y1="436.0" x2="586.0" y2="435.0" style="stroke:rgb(0,0,0);stroke-width:1"/>
<line x1="586.0" y1="435.0" x2="589.0" y2="434.0" style="stroke:rgb(0,0,0);stroke-width:1"/>
<line x1="589.0" y1="434.0" x2="592.0" y2="433.0" style="stroke:rgb(0,0,0);stroke-width:1"/>
<line x1="592.0" y1="433.0" x2="594.0" y2="432.0" style="stroke:rgb(0,0,0);stroke-width:1"/>
<line x1="594.0" y1="432.0" x2="596.0" y2="431.0" style="stroke:rgb(0,0,0);stroke-width:1"/>
<line x1="596.0" y1="431.0" x2="598.0" y2="430.0" style="stroke:rgb(0,0,0);stroke-width:1"/>
<line x1="598.0" y1="430.0" x2="600.0" y2="429.0" style="stroke:rgb(0,0,0);stroke-width:1"/>
<line x1="600.0" y1="429.0" x2="602.0" y2="428.0" style="stroke:rgb(0,0,0);stroke-width:1"/>
<line x1="602.0" y1="428.0" x2="604.0" y2="427.0" style="stroke:rgb(0,0,0);stroke-width:1"/>
<line x1="604.0" y1="427.0" x2="606.0" y2="425.0" style="stroke:rgb(0,0,0);stroke-width:1"/>
<line x1="606.0" y1="425.0" x2="608.0" y2="424.0" style="stroke:rgb(0,0,0);stroke-width:1"/>
<line x1="608.0" y1="424.0" x2="610.0" y2="422.0" style="stroke:rgb(0,0,0);stroke-width:1"/>
<line x1="610.0" y1="422.0" x2="612.0" y2="420.0" style="stroke:rgb(0,0,0);stroke-width:1"/>
<line x1="612.0" y1="420.0" x2="614.0" y2="418.0" style="stroke:rgb(0,0,0);stroke-width:1"/>
<line x1="614.0" y1="418.0" x2="616.0" y2="416.0" style="stroke:rgb(0,0,0);stroke-width:1"/>
<line x1="616.0" y1="416.0" x2="618.0" y2="414.0" style="stroke:rgb(0,0,0);stroke-width:1"/>
<line x1="618.0" y1="414.0" x2="620.0" y2="411.0" style="stroke:rgb(0,0,0);stroke-width:1"/>
<line x1="620.0" y1="411.0" x2="622.0" y2="409.0" style="stroke:rgb(0,0,0);stroke-width:1"/>
<line x1="622.0" y1="409.0" x2="623.0" y2="407.0" style="stroke:rgb(0,0,0);stroke-width:1"/>
<line x1="623.0" y1="407.0" x2="624.0" y2="405.0" style="stroke:rgb(0,0,0);stroke-width:1"/>
<line x1="624.0" y1="405.0" x2="626.0" y2="402.0" style="stroke:rgb(0,0,0);stroke-width:1"/>
<line x1="626.0" y1="402.0" x2="627.0" y2="400.0" style="stroke:rgb(0,0,0);stroke-width:1"/>
<line x1="627.0" y1="400.0" x2="628.0" y2="398.0" style="stroke:rgb(0,0,0);stroke-width:1"/>
<line x1="628.0" y1="398.0" x2="629.0" y2="395.0" style="stroke:rgb(0,0,0);stroke-width:1"/>
<line x1="629.0" y1="395.0" x2="630.0" y2="393.0" style="stroke:rgb(0,0,0);stroke-width:1"/>
<line x1="630.0" y1="393.0" x2="631.0" y2="390.0" style="stroke:rgb(0,0,0);stroke-width:1"/>
<line x1="631.0" y1="390.0" x2="632.0" y2="386.0" style="stroke:rgb(0,0,0);stroke-width:1"/>
<line x1="632.0" y1="386.0" x2="633.0" y2="382.0" style="stroke:rgb(0,0,0);stroke-width:1"/>
<line x1="633.0" y1="382.0" x2="634.0" y2="376.0" style="stroke:rgb(0,0,0);stroke-width:1"/>
<line x1="432.0" y1="311.0" x2="432.0" y2="290.0" style="stroke:rgb(0,0,0);stroke-width:1"/>
<line x1="432.0" y1="290.0" x2="433.0" y2="283.0" style="stroke:rgb(0,0,0);stroke-width:1"/>
<line x1="433.0" y1="283.0" x2="434.0" y2="278.0" style="stroke:rgb(0,0,0);stroke-width:1"/>
<line x1="434.0" y1="278.0" x2="435.0" y2="274.0" style="stroke:rgb(0,0,0);stroke-width:1"/>
<line x1="435.0" y1="274.0" x2="436.0" y2="271.0" style="stroke:rgb(0,0,0);stroke-width:1"/>
<line x1="436.0" y1="271.0" x2="437.0" y2="268.0" style="stroke:rgb(0,0,0);stroke-width:1"/>
<line x1="437.0" y1="268.0" x2="438.0" y2="266.0" style="stroke:rgb(0,0,0);stroke-width:1"/>
<line x1="438.0" y1="266.0" x2="439.0" y2="264.0" style="stroke:rgb(0,0,0);stroke-width:1"/>
<line x1="439.0" y1="264.0" x2="440.0" y2="261.0" style="stroke:rgb(0,0,0);stroke-width:1"/>
<line x1="440.0" y1="261.0" x2="441.0" y2="259.0" style="stroke:rgb(0,0,0);stroke-width:1"/>
<line x1="441.0" y1="259.0" x2="443.0" y2="256.0" style="stroke:rgb(0,0,0);stroke-width:1"/>
<line x1="443.0" y1="256.0" x2="444.0" y2="254.0" style="stroke:rgb(0,0,0);stroke-width:1"/>
<line x1="444.0" y1="254.0" x2="446.0" y2="252.0" style="stroke:rgb(0,0,0);stroke-width:1"/>
<line x1="446.0" y1="252.0" x2="447.0" y2="250.0" style="stroke:rgb(0,0,0);stroke-width:1"/>
<line x1="447.0" y1="250.0" x2="449.0" y2="248.0" style="stroke:rgb(0,0,0);stroke-width:1"/>
<line x1="449.0" y1="248.0" x2="451.0" y2="245.0" style="stroke:rgb(0,0,0);stroke-width:1"/>
<line x1="451.0" y1="245.0" x2="453.0" y2="243.0" style="stroke:rgb(0,0,0);stroke-width:1"/>
<line x1="453.0" y1="243.0" x2="455.0" y2="241.0" style="stroke:rgb(0,0,0);stroke-width:1"/>
<line x1="455.0" y1="241.0" x2="457.0" y2="240.0" style="stroke:rgb(0,0,0);stroke-width:1"/>
<line x1="457.0" y1="240.0" x2="459.0" y2="238.0" style="stroke:rgb(0,0,0);stroke-width:1"/>
<line x1="459.0" y1="238.0" x2="461.0" y2="237.0" style="stroke:rgb(0,0,0);stroke-width:1"/>
<line x1="461.0" y1="237.0" x2="463.0" y2="235.0" style="stroke:rgb(0,0,0);stroke-width:1"/>
<line x1="463.0" y1="235.0" x2="465.0" y2="234.0" style="stroke:rgb(0,0,0);stroke-width:1"/>
<line x1="465.0" y1="234.0" x2="467.0" y2="233.0" style="stroke:rgb(0,0,0);stroke-width:1"/>
<line x1="467.0" y1="233.0" x2="469.0" y2="232.0" style="stroke:rgb(0,0,0);stroke-width:1"/>
<line x1="469.0" y1="232.0" x2="471.0" y2="231.0" style="stroke:rgb(0,0,0);stroke-width:1"/>
<line x1="471.0" y1="231.0" x2="473.0" y2="230.0" style="stroke:rgb(0,0,0);stroke-width:1"/>
<line x1="473.0" y1="230.0" x2="475.0" y2="229.0" style="stroke:rgb(0,0,0);stroke-width:1"/>
<line x1="475.0" y1="229.0" x2="477.0" y2="228.0" style="stroke:rgb(0,0,0);stroke-width:1"/>
<line x1="477.0" y1="228.0" x2="480.0" y2="227.0" style="stroke:rgb(0,0,0);stroke-width:1"/>
<line x1="480.0" y1="227.0" x2="483.0" y2="226.0" style="stroke:rgb(0,0,0);stroke-width:1"/>
<line x1="483.0" y1="226.0" x2="486.0" y2="226.0" style="stroke:rgb(0,0,0);stroke-width:1"/>
<line x1="486.0" y1="226.0" x2="488.0" y2="225.0" style="stroke:rgb(0,0,0);stroke-width:1"/>
<line x1="488.0" y1="225.0" x2="491.0" y2="225.0" style="stroke:rgb(0,0,0);stroke-width:1"/>
<line x1="491.0" y1="225.0" x2="493.0" y2="224.0" style="stroke:rgb(0,0,0);stroke-width:1"/>
<line x1="493.0" y1="224.0" x2="496.0" y2="224.0" style="stroke:rgb(0,0,0);stroke-width:1"/>
<line x1="496.0" y1="224.0" x2="499.0" y2="224.0" style="stroke:rgb(0,0,0);stroke-width:1"/>
<line x1="499.0" y1="224.0" x2="502.0" y2="224.0" style="stroke:rgb(0,0,0);stroke-width:1"/>
<line x1="502.0" y1="224.0" x2="505.0" y2="224.0" style="stroke:rgb(0,0,0);stroke-width:1"/>
<line x1="505.0" y1="224.0" x2="508.0" y2="224.0" style="stroke:rgb(0,0,0);stroke-width:1"/>
<line x1="508.0" y1="224.0" x2="511.0" y2="224.0" style="stroke:rgb(0,0,0);stroke-width:1"/>
<line x1="511.0" y1="224.0" x2="514.0" y2="224.0" style="stroke:rgb(0,0,0);stroke-width:1"/>
<line x1="514.0" y1="224.0" x2="517.0" y2="225.0" style="stroke:rgb(0,0,0);stroke-width:1"/>
<line x1="517.0" y1="225.0" x2="520.0" y2="225.0" style="stroke:rgb(0,0,0);stroke-width:1"/>
<line x1="520.0" y1="225.0" x2="523.0" y2="226.0" style="stroke:rgb(0,0,0);stroke-width:1"/>
<line x1="523.0" y1="226.0" x2="526.0" y2="226.0" style="stroke:rgb(0,0,0);stroke-width:1"/>
<line x1="526.0" y1="226.0" x2="528.0" y2="227.0" style="stroke:rgb(0,0,0);stroke-width:1"/>
<line x1="528.0" y1="227.0" x2="531.0" y2="228.0" style="stroke:rgb(0,0,0);stroke-width:1"/>
<line x1="531.0" y1="228.0" x2="534.0" y2="229.0" style="stroke:rgb(0,0,0);stroke-width:1"/>
<line x1="534.0" y1="229.0" x2="537.0" y2="230.0" style="stroke:rgb(0,0,0);stroke-width:1"/>
<line x1="537.0" y1="230.0" x2="540.0" y2="231.0" style="stroke:rgb(0,0,0);stroke-width:1"/>
<line x1="540.0" y1="231.0" x2="543.0" y2="232.0" style="stroke:rgb(0,0,0);stroke-width:1"/>
<line x1="543.0" y1="232.0" x2="545.0" y2="233.0" style="stroke:rgb(0,0,0);stroke-width:1"/>
<line x1="545.0" y1="233.0" x2="548.0" y2="234.0" style="stroke:rgb(0,0,0);stroke-width:1"/>
<line x1="548.0" y1="234.0" x2="550.0" y2="235.0" style="stroke:rgb(0,0,0);stroke-width:1"/>
<line x1="550.0" y1="235.0" x2="552.0" y2="236.0" style="stroke:rgb(0,0,0);stroke-width:1"/>
<line x1="552.0" y1="236.0" x2="554.0" y2="237.0" style="stroke:rgb(0,0,0);stroke-width:1"/>
<line x1="554.0" y1="237.0" x2="556.0" y2="238.0" style="stroke:rgb(0,0,0);stroke-width:1"/>
<line x1="556.0" y1="238.0" x2="558.0" y2="239.0" style="stroke:rgb(0,0,0);stroke-width:1"/>
<line x1="558.0" y1="239.0" x2="560.0" y2="240.0" style="stroke:rgb(0,0,0);stroke-width:1"/>
<line x1="560.0" y1="240.0" x2="562.0" y2="241.0" style="stroke:rgb(0,0,0);stroke-width:1"/>
<line x1="562.0" y1="241.0" x2="564.0" y2="243.0" style="stroke:rgb(0,0,0);stroke-width:1"/>
<line x1="564.0" y1="243.0" x2="566.0" y2="244.0" style="stroke:rgb(0,0,0);stroke-width:1"/>
<line x1="566.0" y1="244.0" x2="568.0" y2="245.0" style="stroke:rgb(0,0,0);stroke-width:1"/>
<line x1="568.0" y1="245.0" x2="570.0" y2="247.0" style="stroke:rgb(0,0,0);stroke-width:1"/>
<line x1="570.0" y1="247.0" x2="572.0" y2="248.0" style="stroke:rgb(0,0,0);stroke-width:1"/>
<line x1="572.0" y1="248.0" x2="574.0" y2="249.0" style="stroke:rgb(0,0,0);stroke-width:1"/>
<line x1="574.0" y1="249.0" x2="576.0" y2="251.0" style="stroke:rgb(0,0,0);stroke-width:1"/>
<line x1="576.0" y1="251.0" x2="578.0" y2="253.0" style="stroke:rgb(0,0,0);stroke-width:1"/>
<line x1="578.0" y1="253.0" x2="580.0" y2="254.0" style="stroke:rgb(0,0,0);stroke-width:1"/>
<line x1="580.0" y1="254.0" x2="582.0" y2="256.0" style="stroke:rgb(0,0,0);stroke-width:1"/>
<line x1="582.0" y1="256.0" x2="584.0" y2="258.0" style="stroke:rgb(0,0,0);stroke-width:1"/>
<line x1="584.0" y1="258.0" x2="586.0" y2="259.0" style="stroke:rgb(0,0,0);stroke-width:1"/>
<line x1="586.0" y1="259.0" x2="588.0" y2="261.0" style="stroke:rgb(0,0,0);stroke-width:1"/>
<line x1="588.0" y1="261.0" x2="590.0" y2="263.0" style="stroke:rgb(0,0,0);stroke-width:1"/>
<line x1="590.0" y1="263.0" x2="592.0" y2="265.0" style="stroke:rgb(0,0,0);stroke-width:1"/>
<line x1="592.0" y1="265.0" x2="594.0" y2="267.0" style="stroke:rgb(0,0,0);stroke-width:1"/>
<line x1="594.0" y1="267.0" x2="596.0" y2="269.0" style="stroke:rgb(0,0,0);stroke-width:1"/>
<line x1="596.0" y1="269.0" x2="597.0" y2="271.0" style="stroke:rgb(0,0,0);stroke-width:1"/>
<line x1="597.0" y1="271.0" x2="599.0" y2="273.0" style="stroke:rgb(0,0,0);stroke-width:1"/>
<line x1="599.0" y1="273.0" x2="601.0" y2="275.0" style="stroke:rgb(0,0,0);stroke-width:1"/>
<line x1="601.0" y1="275.0" x2="603.0" y2="278.0" style="stroke:rgb(0,0,0);stroke-width:1"/>
<line x1="603.0" y1="278.0" x2="605.0" y2="280.0" style="stroke:rgb(0,0,0);stroke-width:1"/>
<line x1="605.0" y1="280.0" x2="606.0" y2="282.0" style="stroke:rgb(0,0,0);stroke-width:1"/>
<line x1="606.0" y1="282.0" x2="608.0" y2="284.0" style="stroke:rgb(0,0,0);stroke-width:1"/>
<line x1="608.0" y1="284.0" x2="609.0" y2="286.0" style="stroke:rgb(0,0,0);stroke-width:1"/>
<line x1="609.0" y1="286.0" x2="611.0" y2="289.0" style="stroke:rgb(0,0,0);stroke-width:1"/>
<line x1="611.0" y1="289.0" x2="613.0" y2="292.0" style="stroke:rgb(0,0,0);stroke-width:1"/>
<line x1="613.0" y1="292.0" x2="615.0" y2="295.0" style="stroke:rgb(0,0,0);stroke-width:1"/>
<line x1="615.0" y1="295.0" x2="616.0" y2="297.0" style="stroke:rgb(0,0,0);stroke-width:1"/>
<line x1="616.0" y1="297.0" x2="618.0" y2="300.0" style="stroke:rgb(0,0,0);stroke-width:1"/>
<line x1="618.0" y1="300.0" x2="619.0" y2="302.0" style="stroke:rgb(0,0,0);stroke-width:1"/>
<line x1="619.0" y1="302.0" x2="620.0" y2="304.0" style="stroke:rgb(0,0,0);stroke-width:1"/>
<line x1="620.0" y1="304.0" x2="621.0" y2="306.0" style="stroke:rgb(0,0,0);stroke-width:1"/>
<line x1="621.0" y1="306.0" x2="622.0" y2="308.0" style="stroke:rgb(0,0,0);stroke-width:1"/>
<line x1="622.0" y1="308.0" x2="623.0" y2="310.0" style="stroke:rgb(0,0,0);stroke-width:1"/>
<line x1="623.0" y1="310.0" x2="624.0" y2="313.0" style="stroke:rgb(0,0,0);stroke-width:1"/>
<line x1="624.0" y1="313.0" x2="625.0" y2="315.0" style="stroke:rgb(0,0,0);stroke-width:1"/>
<line x1="625.0" y1="315.0" x2="626.0" y2="317.0" style="stroke:rgb(0,0,0);stroke-width:1"/>
<line x1="626.0" y1="317.0" x2="627.0" y2="320.0" style="stroke:rgb(0,0,0);stroke-width:1"/>
<line x1="627.0" y1="320.0" x2="628.0" y2="323.0" style="stroke:rgb(0,0,0);stroke-width:1"/>
<line x1="628.0" y1="323.0" x2="629.0" y2="326.0" style="stroke:rgb(0,0,0);stroke-width:1"/>
<line x1="629.0" y1="326.0" x2="630.0" y2="329.0" style="stroke:rgb(0,0,0);stroke-width:1"/>
<line x1="630.0" y1="329.0" x2="631.0" y2="333.0" style="stroke:rgb(0,0,0);stroke-width:1"/>
<line x1="631.0" y1="333.0" x2="632.0" y2="337.0" style="stroke:rgb(0,0,0);stroke-width:1"/>
<line x1="632.0" y1="337.0" x2="633.0" y2="342.0" style="stroke:rgb(0,0,0);stroke-width:1"/>
<line x1="633.0" y1="342.0" x2="634.0" y2="348.0" style="stroke:rgb(0,0,0);stroke-width:1"/>
<line x1="634.0" y1="376.0" x2="634.0" y2="348.0" style="stroke:rgb(0,0,0);stroke-width:1"/>
<path d="M 466.98963437085166 287.6385167125941 H 471.98963437085166 V 292.6385167125941 H 466.98963437085166 Z" style="fill:none;stroke:rgb(0,0,0);stroke-width:1"/>
<text x="475.98963437085166" y="308.6385167125941" style="font-size:0;fill:rgb(0,0,0);font-weight:normal">A</text><path d="M 576.0096344766293 391.15770244613464 H 581.0096344766293 V 396.15770244613464 H 576.0096344766293 Z" style="fill:none;stroke:rgb(0,0,0);stroke-width:1"/>
<text x="585.0096344766293" y="412.15770244613464" style="font-size:0;fill:rgb(0,0,0);font-weight:normal">B</text><path d="M 429.680216794182 313.22366523163737 H 434.680216794182 V 318.22366523163737 H 429.680216794182 Z" style="fill:none;stroke:rgb(0,0,0);stroke-width:1"/>
<text x="438.680216794182" y="334.22366523163737" style="font-size:0;fill:rgb(0,0,0);font-weight:normal">P</text><line x1="432.680216794182" y1="316.22366523163737" x2="469.98963437085166" y2="290.6385167125941" style="stroke:rgb(0,124,0);stroke-width:1"/>
<path d="M 462.0 226.0 A 115.47088650701377 115.47088650701377 0 0 0 555.0 239.0" style="stroke:rgb(180,0,0);stroke-width:1;fill:none"/>
<path d="M 339.0 426.0 A 349.1997278943448 349.1997278943448 0 0 0 621.0 463.0" style="stroke:rgb(180,0,0);stroke-width:1;fill:none"/>
<path d="M 469.4955297214566 229.32081792794986 H 474.4955297214566 V 234.32081792794986 H 469.4955297214566 Z" style="fill:none;stroke:rgb(0,0,0);stroke-width:1"/>
<path d="M 369.2917222362279 440.4803980130772 H 374.2917222362279 V 445.4803980130772 H 369.2917222362279 Z" style="fill:none;stroke:rgb(0,0,0);stroke-width:1"/>
<line x1="432.680216794182" y1="316.22366523163737" x2="472.4955297214566" y2="232.32081792794986" style="stroke:rgb(0,124,0);stroke-width:1"/>
<line x1="432.680216794182" y1="316.22366523163737" x2="579.0096344766293" y2="394.15770244613464" style="stroke:rgb(0,0,178);stroke-width:1"/>
<line x1="432.680216794182" y1="316.22366523163737" x2="372.2917222362279" y2="443.4803980130772" style="stroke:rgb(0,0,178);stroke-width:1"/>
<line x1="439.75366194420275" y1="261.9281585908589" x2="609.2456055577976" y2="422.868059290278" style="stroke:rgb(0,0,0);stroke-width:1"/>
</svg>
