<?xml version="1.0" encoding="utf-8"?>
<!DOCTYPE svg PUBLIC "-//W3C//DTD SVG 1.1//EN"
"http://www.w3.org/Graphics/SVG/1.1/DTD/svg11.dtd">
<svg xmlns="http://www.w3.org/2000/svg" width="1260" height="572">
<path d="M 424.99995 296.00005 H 429.99995 V 301.00005 H 424.99995 Z" style="fill:none;stroke:rgb(0,0,0);stroke-width:1"/>
<text x="433.99995" y="317.00005" style="font-size:0;fill:rgb(0,0,0);font-weight:normal">O</text><ellipse cx="427.99995" cy="299.00005" rx="95.01571764716093" ry="95.01571764716093" style="stroke:rgb(180,0,0);fill:none;stroke-width:1"/>
<line x1="478.0" y1="244.0" x2="479.0" y2="254.0" style="stroke:rgb(0,0,0);stroke-width:1"/>
<line x1="479.0" y1="254.0" x2="480.0" y2="259.0" style="stroke:rgb(0,0,0);stroke-width:1"/>
<line x1="480.0" y1="259.0" x2="481.0" y2="262.0" style="stroke:rgb(0,0,0);stroke-width:1"/>
<line x1="481.0" y1="262.0" x2="482.0" y2="266.0" style="stroke:rgb(0,0,0);stroke-width:1"/>
<line x1="482.0" y1="266.0" x2="483.0" y2="269.0" style="stroke:rgb(0,0,0);stroke-width:1"/>
<line x1="483.0" y1="269.0" x2="484.0" y2="271.0" style="stroke:rgb(0,0,0);stroke-width:1"/>
<line x1="484.0" y1="271.0" x2="485.0" y2="274.0" style="stroke:rgb(0,0,0);stroke-width:1"/>
<line x1="485.0" y1="274.0" x2="486.0" y2="276.0" style="stroke:rgb(0,0,0);stroke-width:1"/>
<line x1="486.0" y1="276.0" x2="487.0" y2="278.0" style="stroke:rgb(0,0,0);stroke-width:1"/>
<line x1="487.0" y1="278.0" x2="488.0" y2="280.0" style="stroke:rgb(0,0,0);stroke-width:1"/>
<line x1="488.0" y1="280.0" x2="489.0" y2="282.0" style="stroke:rgb(0,0,0);stroke-width:1"/>
<line x1="489.0" y1="282.0" x2="490.0" y2="284.0" style="stroke:rgb(0,0,0);stroke-width:1"/>
<line x1="490.0" y1="284.0" x2="491.0" y2="286.0" style="stroke:rgb(0,0,0);stroke-width:1"/>
<line x1="491.0" y1="286.0" x2="493.0" y2="289.0" style="stroke:rgb(0,0,0);stroke-width:1"/>
<line x1="493.0" y1="289.0" x2="494.0" y2="291.0" style="stroke:rgb(0,0,0);stroke-width:1"/>
<line x1="494.0" y1="291.0" x2="496.0" y2="294.0" style="stroke:rgb(0,0,0);stroke-width:1"/>
<line x1="496.0" y1="294.0" x2="498.0" y2="297.0" style="stroke:rgb(0,0,0);stroke-width:1"/>
<line x1="498.0" y1="297.0" x2="500.0" y2="299.0" style="stroke:rgb(0,0,0);stroke-width:1"/>
<line x1="500.0" y1="299.0" x2="501.0" y2="301.0" style="stroke:rgb(0,0,0);stroke-width:1"/>
<line x1="501.0" y1="301.0" x2="503.0" y2="303.0" style="stroke:rgb(0,0,0);stroke-width:1"/>
<line x1="503.0" y1="303.0" x2="505.0" y2="306.0" style="stroke:rgb(0,0,0);stroke-width:1"/>
<line x1="505.0" y1="306.0" x2="507.0" y2="308.0" style="stroke:rgb(0,0,0);stroke-width:1"/>
<line x1="507.0" y1="308.0" x2="509.0" y2="310.0" style="stroke:rgb(0,0,0);stroke-width:1"/>
<line x1="509.0" y1="310.0" x2="510.0" y2="312.0" style="stroke:rgb(0,0,0);stroke-width:1"/>
<line x1="510.0" y1="312.0" x2="512.0" y2="314.0" style="stroke:rgb(0,0,0);stroke-width:1"/>
<line x1="512.0" y1="314.0" x2="514.0" y2="316.0" style="stroke:rgb(0,0,0);stroke-width:1"/>
<line x1="514.0" y1="316.0" x2="516.0" y2="318.0" style="stroke:rgb(0,0,0);stroke-width:1"/>
<line x1="516.0" y1="318.0" x2="518.0" y2="320.0" style="stroke:rgb(0,0,0);stroke-width:1"/>
<line x1="518.0" y1="320.0" x2="520.0" y2="322.0" style="stroke:rgb(0,0,0);stroke-width:1"/>
<line x1="520.0" y1="322.0" x2="522.0" y2="324.0" style="stroke:rgb(0,0,0);stroke-width:1"/>
<line x1="522.0" y1="324.0" x2="524.0" y2="326.0" style="stroke:rgb(0,0,0);stroke-width:1"/>
<line x1="524.0" y1="326.0" x2="526.0" y2="327.0" style="stroke:rgb(0,0,0);stroke-width:1"/>
<line x1="526.0" y1="327.0" x2="528.0" y2="329.0" style="stroke:rgb(0,0,0);stroke-width:1"/>
<line x1="528.0" y1="329.0" x2="530.0" y2="331.0" style="stroke:rgb(0,0,0);stroke-width:1"/>
<line x1="530.0" y1="331.0" x2="532.0" y2="332.0" style="stroke:rgb(0,0,0);stroke-width:1"/>
<line x1="532.0" y1="332.0" x2="534.0" y2="334.0" style="stroke:rgb(0,0,0);stroke-width:1"/>
<line x1="534.0" y1="334.0" x2="536.0" y2="336.0" style="stroke:rgb(0,0,0);stroke-width:1"/>
<line x1="536.0" y1="336.0" x2="538.0" y2="337.0" style="stroke:rgb(0,0,0);stroke-width:1"/>
<line x1="538.0" y1="337.0" x2="540.0" y2="339.0" style="stroke:rgb(0,0,0);stroke-width:1"/>
<line x1="540.0" y1="339.0" x2="542.0" y2="340.0" style="stroke:rgb(0,0,0);stroke-width:1"/>
<line x1="542.0" y1="340.0" x2="544.0" y2="342.0" style="stroke:rgb(0,0,0);stroke-width:1"/>
<line x1="544.0" y1="342.0" x2="546.0" y2="343.0" style="stroke:rgb(0,0,0);stroke-width:1"/>
<line x1="546.0" y1="343.0" x2="548.0" y2="344.0" style="stroke:rgb(0,0,0);stroke-width:1"/>
<line x1="548.0" y1="344.0" x2="550.0" y2="346.0" style="stroke:rgb(0,0,0);stroke-width:1"/>
<line x1="550.0" y1="346.0" x2="552.0" y2="347.0" style="stroke:rgb(0,0,0);stroke-width:1"/>
<line x1="552.0" y1="347.0" x2="554.0" y2="348.0" style="stroke:rgb(0,0,0);stroke-width:1"/>
<line x1="554.0" y1="348.0" x2="556.0" y2="350.0" style="stroke:rgb(0,0,0);stroke-width:1"/>
<line x1="556.0" y1="350.0" x2="558.0" y2="351.0" style="stroke:rgb(0,0,0);stroke-width:1"/>
<line x1="558.0" y1="351.0" x2="560.0" y2="352.0" style="stroke:rgb(0,0,0);stroke-width:1"/>
<line x1="560.0" y1="352.0" x2="562.0" y2="353.0" style="stroke:rgb(0,0,0);stroke-width:1"/>
<line x1="562.0" y1="353.0" x2="564.0" y2="354.0" style="stroke:rgb(0,0,0);stroke-width:1"/>
<line x1="564.0" y1="354.0" x2="566.0" y2="356.0" style="stroke:rgb(0,0,0);stroke-width:1"/>
<line x1="566.0" y1="356.0" x2="568.0" y2="357.0" style="stroke:rgb(0,0,0);stroke-width:1"/>
<line x1="568.0" y1="357.0" x2="570.0" y2="358.0" style="stroke:rgb(0,0,0);stroke-width:1"/>
<line x1="570.0" y1="358.0" x2="572.0" y2="359.0" style="stroke:rgb(0,0,0);stroke-width:1"/>
<line x1="572.0" y1="359.0" x2="574.0" y2="360.0" style="stroke:rgb(0,0,0);stroke-width:1"/>
<line x1="574.0" y1="360.0" x2="576.0" y2="361.0" style="stroke:rgb(0,0,0);stroke-width:1"/>
<line x1="576.0" y1="361.0" x2="578.0" y2="362.0" style="stroke:rgb(0,0,0);stroke-width:1"/>
<line x1="578.0" y1="362.0" x2="580.0" y2="363.0" style="stroke:rgb(0,0,0);stroke-width:1"/>
<line x1="580.0" y1="363.0" x2="582.0" y2="364.0" style="stroke:rgb(0,0,0);stroke-width:1"/>
<line x1="582.0" y1="364.0" x2="584.0" y2="365.0" style="stroke:rgb(0,0,0);stroke-width:1"/>
<line x1="584.0" y1="365.0" x2="586.0" y2="366.0" style="stroke:rgb(0,0,0);stroke-width:1"/>
<line x1="586.0" y1="366.0" x2="588.0" y2="367.0" style="stroke:rgb(0,0,0);stroke-width:1"/>
<line x1="588.0" y1="367.0" x2="591.0" y2="368.0" style="stroke:rgb(0,0,0);stroke-width:1"/>
<line x1="591.0" y1="368.0" x2="593.0" y2="369.0" style="stroke:rgb(0,0,0);stroke-width:1"/>
<line x1="593.0" y1="369.0" x2="595.0" y2="370.0" style="stroke:rgb(0,0,0);stroke-width:1"/>
<line x1="595.0" y1="370.0" x2="598.0" y2="371.0" style="stroke:rgb(0,0,0);stroke-width:1"/>
<line x1="598.0" y1="371.0" x2="600.0" y2="372.0" style="stroke:rgb(0,0,0);stroke-width:1"/>
<line x1="600.0" y1="372.0" x2="603.0" y2="373.0" style="stroke:rgb(0,0,0);stroke-width:1"/>
<line x1="603.0" y1="373.0" x2="606.0" y2="374.0" style="stroke:rgb(0,0,0);stroke-width:1"/>
<line x1="606.0" y1="374.0" x2="609.0" y2="375.0" style="stroke:rgb(0,0,0);stroke-width:1"/>
<line x1="609.0" y1="375.0" x2="612.0" y2="376.0" style="stroke:rgb(0,0,0);stroke-width:1"/>
<line x1="612.0" y1="376.0" x2="615.0" y2="377.0" style="stroke:rgb(0,0,0);stroke-width:1"/>
<line x1="615.0" y1="377.0" x2="618.0" y2="378.0" style="stroke:rgb(0,0,0);stroke-width:1"/>
<line x1="618.0" y1="378.0" x2="621.0" y2="379.0" style="stroke:rgb(0,0,0);stroke-width:1"/>
<line x1="621.0" y1="379.0" x2="624.0" y2="379.0" style="stroke:rgb(0,0,0);stroke-width:1"/>
<line x1="624.0" y1="379.0" x2="626.0" y2="380.0" style="stroke:rgb(0,0,0);stroke-width:1"/>
<line x1="626.0" y1="380.0" x2="629.0" y2="381.0" style="stroke:rgb(0,0,0);stroke-width:1"/>
<line x1="629.0" y1="381.0" x2="632.0" y2="381.0" style="stroke:rgb(0,0,0);stroke-width:1"/>
<line x1="632.0" y1="381.0" x2="634.0" y2="382.0" style="stroke:rgb(0,0,0);stroke-width:1"/>
<line x1="634.0" y1="382.0" x2="637.0" y2="382.0" style="stroke:rgb(0,0,0);stroke-width:1"/>
<line x1="637.0" y1="382.0" x2="639.0" y2="383.0" style="stroke:rgb(0,0,0);stroke-width:1"/>
<line x1="639.0" y1="383.0" x2="642.0" y2="383.0" style="stroke:rgb(0,0,0);stroke-width:1"/>
<line x1="642.0" y1="383.0" x2="644.0" y2="384.0" style="stroke:rgb(0,0,0);stroke-width:1"/>
<line x1="644.0" y1="384.0" x2="647.0" y2="384.0" style="stroke:rgb(0,0,0);stroke-width:1"/>
<line x1="647.0" y1="384.0" x2="650.0" y2="385.0" style="stroke:rgb(0,0,0);stroke-width:1"/>
<line x1="650.0" y1="385.0" x2="653.0" y2="385.0" style="stroke:rgb(0,0,0);stroke-width:1"/>
<line x1="653.0" y1="385.0" x2="656.0" y2="385.0" style="stroke:rgb(0,0,0);stroke-width:1"/>
<line x1="656.0" y1="385.0" x2="658.0" y2="386.0" style="stroke:rgb(0,0,0);stroke-width:1"/>
<line x1="658.0" y1="386.0" x2="661.0" y2="386.0" style="stroke:rgb(0,0,0);stroke-width:1"/>
<line x1="661.0" y1="386.0" x2="664.0" y2="386.0" style="stroke:rgb(0,0,0);stroke-width:1"/>
<line x1="664.0" y1="386.0" x2="667.0" y2="386.0" style="stroke:rgb(0,0,0);stroke-width:1"/>
<line x1="667.0" y1="386.0" x2="670.0" y2="386.0" style="stroke:rgb(0,0,0);stroke-width:1"/>
<line x1="670.0" y1="386.0" x2="673.0" y2="386.0" style="stroke:rgb(0,0,0);stroke-width:1"/>
<line x1="673.0" y1="386.0" x2="676.0" y2="386.0" style="stroke:rgb(0,0,0);stroke-width:1"/>
<line x1="676.0" y1="386.0" x2="679.0" y2="386.0" style="stroke:rgb(0,0,0);stroke-width:1"/>
<line x1="679.0" y1="386.0" x2="682.0" y2="386.0" style="stroke:rgb(0,0,0);stroke-width:1"/>
<line x1="682.0" y1="386.0" x2="685.0" y2="386.0" style="stroke:rgb(0,0,0);stroke-width:1"/>
<line x1="685.0" y1="386.0" x2="688.0" y2="386.0" style="stroke:rgb(0,0,0);stroke-width:1"/>
<line x1="688.0" y1="386.0" x2="690.0" y2="385.0" style="stroke:rgb(0,0,0);stroke-width:1"/>
<line x1="690.0" y1="385.0" x2="693.0" y2="385.0" style="stroke:rgb(0,0,0);stroke-width:1"/>
<line x1="693.0" y1="385.0" x2="696.0" y2="385.0" style="stroke:rgb(0,0,0);stroke-width:1"/>
<line x1="696.0" y1="385.0" x2="698.0" y2="384.0" style="stroke:rgb(0,0,0);stroke-width:1"/>
<line x1="698.0" y1="384.0" x2="701.0" y2="384.0" style="stroke:rgb(0,0,0);stroke-width:1"/>
<line x1="701.0" y1="384.0" x2="703.0" y2="383.0" style="stroke:rgb(0,0,0);stroke-width:1"/>
<line x1="703.0" y1="383.0" x2="706.0" y2="383.0" style="stroke:rgb(0,0,0);stroke-width:1"/>
<line x1="706.0" y1="383.0" x2="708.0" y2="382.0" style="stroke:rgb(0,0,0);stroke-width:1"/>
<line x1="708.0" y1="382.0" x2="711.0" y2="381.0" style="stroke:rgb(0,0,0);stroke-width:1"/>
<line x1="711.0" y1="381.0" x2="714.0" y2="380.0" style="stroke:rgb(0,0,0);stroke-width:1"/>
<line x1="714.0" y1="380.0" x2="717.0" y2="379.0" style="stroke:rgb(0,0,0);stroke-width:1"/>
<line x1="717.0" y1="379.0" x2="719.0" y2="378.0" style="stroke:rgb(0,0,0);stroke-width:1"/>
<line x1="719.0" y1="378.0" x2="722.0" y2="377.0" style="stroke:rgb(0,0,0);stroke-width:1"/>
<line x1="722.0" y1="377.0" x2="724.0" y2="376.0" style="stroke:rgb(0,0,0);stroke-width:1"/>
<line x1="724.0" y1="376.0" x2="726.0" y2="375.0" style="stroke:rgb(0,0,0);stroke-width:1"/>
<line x1="726.0" y1="375.0" x2="728.0" y2="374.0" style="stroke:rgb(0,0,0);stroke-width:1"/>
<line x1="728.0" y1="374.0" x2="730.0" y2="373.0" style="stroke:rgb(0,0,0);stroke-width:1"/>
<line x1="730.0" y1="373.0" x2="732.0" y2="372.0" style="stroke:rgb(0,0,0);stroke-width:1"/>
<line x1="732.0" y1="372.0" x2="734.0" y2="370.0" style="stroke:rgb(0,0,0);stroke-width:1"/>
<line x1="734.0" y1="370.0" x2="736.0" y2="369.0" style="stroke:rgb(0,0,0);stroke-width:1"/>
<line x1="736.0" y1="369.0" x2="738.0" y2="367.0" style="stroke:rgb(0,0,0);stroke-width:1"/>
<line x1="738.0" y1="367.0" x2="740.0" y2="365.0" style="stroke:rgb(0,0,0);stroke-width:1"/>
<line x1="740.0" y1="365.0" x2="742.0" y2="364.0" style="stroke:rgb(0,0,0);stroke-width:1"/>
<line x1="742.0" y1="364.0" x2="744.0" y2="361.0" style="stroke:rgb(0,0,0);stroke-width:1"/>
<line x1="744.0" y1="361.0" x2="746.0" y2="359.0" style="stroke:rgb(0,0,0);stroke-width:1"/>
<line x1="746.0" y1="359.0" x2="748.0" y2="357.0" style="stroke:rgb(0,0,0);stroke-width:1"/>
<line x1="748.0" y1="357.0" x2="749.0" y2="355.0" style="stroke:rgb(0,0,0);stroke-width:1"/>
<line x1="749.0" y1="355.0" x2="751.0" y2="352.0" style="stroke:rgb(0,0,0);stroke-width:1"/>
<line x1="751.0" y1="352.0" x2="752.0" y2="350.0" style="stroke:rgb(0,0,0);stroke-width:1"/>
<line x1="752.0" y1="350.0" x2="753.0" y2="348.0" style="stroke:rgb(0,0,0);stroke-width:1"/>
<line x1="753.0" y1="348.0" x2="754.0" y2="346.0" style="stroke:rgb(0,0,0);stroke-width:1"/>
<line x1="754.0" y1="346.0" x2="755.0" y2="343.0" style="stroke:rgb(0,0,0);stroke-width:1"/>
<line x1="755.0" y1="343.0" x2="756.0" y2="340.0" style="stroke:rgb(0,0,0);stroke-width:1"/>
<line x1="756.0" y1="340.0" x2="757.0" y2="335.0" style="stroke:rgb(0,0,0);stroke-width:1"/>
<line x1="478.0" y1="244.0" x2="478.0" y2="240.0" style="stroke:rgb(0,0,0);stroke-width:1"/>
<line x1="478.0" y1="240.0" x2="479.0" y2="231.0" style="stroke:rgb(0,0,0);stroke-width:1"/>
<line x1="479.0" y1="231.0" x2="480.0" y2="227.0" style="stroke:rgb(0,0,0);stroke-width:1"/>
<line x1="480.0" y1="227.0" x2="481.0" y2="223.0" style="stroke:rgb(0,0,0);stroke-width:1"/>
<line x1="481.0" y1="223.0" x2="482.0" y2="221.0" style="stroke:rgb(0,0,0);stroke-width:1"/>
<line x1="482.0" y1="221.0" x2="483.0" y2="218.0" style="stroke:rgb(0,0,0);stroke-width:1"/>
<line x1="483.0" y1="218.0" x2="484.0" y2="216.0" style="stroke:rgb(0,0,0);stroke-width:1"/>
<line x1="484.0" y1="216.0" x2="486.0" y2="213.0" style="stroke:rgb(0,0,0);stroke-width:1"/>
<line x1="486.0" y1="213.0" x2="487.0" y2="211.0" style="stroke:rgb(0,0,0);stroke-width:1"/>
<line x1="487.0" y1="211.0" x2="489.0" y2="209.0" style="stroke:rgb(0,0,0);stroke-width:1"/>
<line x1="489.0" y1="209.0" x2="490.0" y2="207.0" style="stroke:rgb(0,0,0);stroke-width:1"/>
<line x1="490.0" y1="207.0" x2="492.0" y2="205.0" style="stroke:rgb(0,0,0);stroke-width:1"/>
<line x1="492.0" y1="205.0" x2="494.0" y2="203.0" style="stroke:rgb(0,0,0);stroke-width:1"/>
<line x1="494.0" y1="203.0" x2="496.0" y2="201.0" style="stroke:rgb(0,0,0);stroke-width:1"/>
<line x1="496.0" y1="201.0" x2="498.0" y2="199.0" style="stroke:rgb(0,0,0);stroke-width:1"/>
<line x1="498.0" y1="199.0" x2="500.0" y2="198.0" style="stroke:rgb(0,0,0);stroke-width:1"/>
<line x1="500.0" y1="198.0" x2="502.0" y2="196.0" style="stroke:rgb(0,0,0);stroke-width:1"/>
<line x1="502.0" y1="196.0" x2="504.0" y2="195.0" style="stroke:rgb(0,0,0);stroke-width:1"/>
<line x1="504.0" y1="195.0" x2="506.0" y2="194.0" style="stroke:rgb(0,0,0);stroke-width:1"/>
<line x1="506.0" y1="194.0" x2="508.0" y2="192.0" style="stroke:rgb(0,0,0);stroke-width:1"/>
<line x1="508.0" y1="192.0" x2="510.0" y2="191.0" style="stroke:rgb(0,0,0);stroke-width:1"/>
<line x1="510.0" y1="191.0" x2="512.0" y2="190.0" style="stroke:rgb(0,0,0);stroke-width:1"/>
<line x1="512.0" y1="190.0" x2="514.0" y2="189.0" style="stroke:rgb(0,0,0);stroke-width:1"/>
<line x1="514.0" y1="189.0" x2="517.0" y2="188.0" style="stroke:rgb(0,0,0);stroke-width:1"/>
<line x1="517.0" y1="188.0" x2="519.0" y2="187.0" style="stroke:rgb(0,0,0);stroke-width:1"/>
<line x1="519.0" y1="187.0" x2="522.0" y2="186.0" style="stroke:rgb(0,0,0);stroke-width:1"/>
<line x1="522.0" y1="186.0" x2="525.0" y2="185.0" style="stroke:rgb(0,0,0);stroke-width:1"/>
<line x1="525.0" y1="185.0" x2="528.0" y2="184.0" style="stroke:rgb(0,0,0);stroke-width:1"/>
<line x1="528.0" y1="184.0" x2="531.0" y2="184.0" style="stroke:rgb(0,0,0);stroke-width:1"/>
<line x1="531.0" y1="184.0" x2="533.0" y2="183.0" style="stroke:rgb(0,0,0);stroke-width:1"/>
<line x1="533.0" y1="183.0" x2="536.0" y2="183.0" style="stroke:rgb(0,0,0);stroke-width:1"/>
<line x1="536.0" y1="183.0" x2="538.0" y2="182.0" style="stroke:rgb(0,0,0);stroke-width:1"/>
<line x1="538.0" y1="182.0" x2="541.0" y2="182.0" style="stroke:rgb(0,0,0);stroke-width:1"/>
<line x1="541.0" y1="182.0" x2="543.0" y2="181.0" style="stroke:rgb(0,0,0);stroke-width:1"/>
<line x1="543.0" y1="181.0" x2="546.0" y2="181.0" style="stroke:rgb(0,0,0);stroke-width:1"/>
<line x1="546.0" y1="181.0" x2="549.0" y2="181.0" style="stroke:rgb(0,0,0);stroke-width:1"/>
<line x1="549.0" y1="181.0" x2="552.0" y2="181.0" style="stroke:rgb(0,0,0);stroke-width:1"/>
<line x1="552.0" y1="181.0" x2="554.0" y2="180.0" style="stroke:rgb(0,0,0);stroke-width:1"/>
<line x1="554.0" y1="180.0" x2="557.0" y2="180.0" style="stroke:rgb(0,0,0);stroke-width:1"/>
<line x1="557.0" y1="180.0" x2="560.0" y2="180.0" style="stroke:rgb(0,0,0);stroke-width:1"/>
<line x1="560.0" y1="180.0" x2="563.0" y2="180.0" style="stroke:rgb(0,0,0);stroke-width:1"/>
<line x1="563.0" y1="180.0" x2="566.0" y2="180.0" style="stroke:rgb(0,0,0);stroke-width:1"/>
<line x1="566.0" y1="180.0" x2="569.0" y2="180.0" style="stroke:rgb(0,0,0);stroke-width:1"/>
<line x1="569.0" y1="180.0" x2="571.0" y2="181.0" style="stroke:rgb(0,0,0);stroke-width:1"/>
<line x1="571.0" y1="181.0" x2="574.0" y2="181.0" style="stroke:rgb(0,0,0);stroke-width:1"/>
<line x1="574.0" y1="181.0" x2="577.0" y2="181.0" style="stroke:rgb(0,0,0);stroke-width:1"/>
<line x1="577.0" y1="181.0" x2="580.0" y2="181.0" style="stroke:rgb(0,0,0);stroke-width:1"/>
<line x1="580.0" y1="181.0" x2="583.0" y2="182.0" style="stroke:rgb(0,0,0);stroke-width:1"/>
<line x1="583.0" y1="182.0" x2="586.0" y2="182.0" style="stroke:rgb(0,0,0);stroke-width:1"/>
<line x1="586.0" y1="182.0" x2="589.0" y2="182.0" style="stroke:rgb(0,0,0);stroke-width:1"/>
<line x1="589.0" y1="182.0" x2="591.0" y2="183.0" style="stroke:rgb(0,0,0);stroke-width:1"/>
<line x1="591.0" y1="183.0" x2="594.0" y2="183.0" style="stroke:rgb(0,0,0);stroke-width:1"/>
<line x1="594.0" y1="183.0" x2="596.0" y2="184.0" style="stroke:rgb(0,0,0);stroke-width:1"/>
<line x1="596.0" y1="184.0" x2="599.0" y2="184.0" style="stroke:rgb(0,0,0);stroke-width:1"/>
<line x1="599.0" y1="184.0" x2="601.0" y2="185.0" style="stroke:rgb(0,0,0);stroke-width:1"/>
<line x1="601.0" y1="185.0" x2="604.0" y2="185.0" style="stroke:rgb(0,0,0);stroke-width:1"/>
<line x1="604.0" y1="185.0" x2="606.0" y2="186.0" style="stroke:rgb(0,0,0);stroke-width:1"/>
<line x1="606.0" y1="186.0" x2="609.0" y2="186.0" style="stroke:rgb(0,0,0);stroke-width:1"/>
<line x1="609.0" y1="186.0" x2="611.0" y2="187.0" style="stroke:rgb(0,0,0);stroke-width:1"/>
<line x1="611.0" y1="187.0" x2="613.0" y2="188.0" style="stroke:rgb(0,0,0);stroke-width:1"/>
<line x1="613.0" y1="188.0" x2="616.0" y2="188.0" style="stroke:rgb(0,0,0);stroke-width:1"/>
<line x1="616.0" y1="188.0" x2="618.0" y2="189.0" style="stroke:rgb(0,0,0);stroke-width:1"/>
<line x1="618.0" y1="189.0" x2="620.0" y2="190.0" style="stroke:rgb(0,0,0);stroke-width:1"/>
<line x1="620.0" y1="190.0" x2="623.0" y2="190.0" style="stroke:rgb(0,0,0);stroke-width:1"/>
<line x1="623.0" y1="190.0" x2="625.0" y2="191.0" style="stroke:rgb(0,0,0);stroke-width:1"/>
<line x1="625.0" y1="191.0" x2="627.0" y2="192.0" style="stroke:rgb(0,0,0);stroke-width:1"/>
<line x1="627.0" y1="192.0" x2="630.0" y2="193.0" style="stroke:rgb(0,0,0);stroke-width:1"/>
<line x1="630.0" y1="193.0" x2="632.0" y2="194.0" style="stroke:rgb(0,0,0);stroke-width:1"/>
<line x1="632.0" y1="194.0" x2="635.0" y2="195.0" style="stroke:rgb(0,0,0);stroke-width:1"/>
<line x1="635.0" y1="195.0" x2="638.0" y2="196.0" style="stroke:rgb(0,0,0);stroke-width:1"/>
<line x1="638.0" y1="196.0" x2="640.0" y2="197.0" style="stroke:rgb(0,0,0);stroke-width:1"/>
<line x1="640.0" y1="197.0" x2="643.0" y2="198.0" style="stroke:rgb(0,0,0);stroke-width:1"/>
<line x1="643.0" y1="198.0" x2="645.0" y2="199.0" style="stroke:rgb(0,0,0);stroke-width:1"/>
<line x1="645.0" y1="199.0" x2="647.0" y2="200.0" style="stroke:rgb(0,0,0);stroke-width:1"/>
<line x1="647.0" y1="200.0" x2="650.0" y2="201.0" style="stroke:rgb(0,0,0);stroke-width:1"/>
<line x1="650.0" y1="201.0" x2="652.0" y2="202.0" style="stroke:rgb(0,0,0);stroke-width:1"/>
<line x1="652.0" y1="202.0" x2="654.0" y2="203.0" style="stroke:rgb(0,0,0);stroke-width:1"/>
<line x1="654.0" y1="203.0" x2="656.0" y2="204.0" style="stroke:rgb(0,0,0);stroke-width:1"/>
<line x1="656.0" y1="204.0" x2="658.0" y2="205.0" style="stroke:rgb(0,0,0);stroke-width:1"/>
<line x1="658.0" y1="205.0" x2="660.0" y2="206.0" style="stroke:rgb(0,0,0);stroke-width:1"/>
<line x1="660.0" y1="206.0" x2="662.0" y2="207.0" style="stroke:rgb(0,0,0);stroke-width:1"/>
<line x1="662.0" y1="207.0" x2="664.0" y2="208.0" style="stroke:rgb(0,0,0);stroke-width:1"/>
<line x1="664.0" y1="208.0" x2="666.0" y2="209.0" style="stroke:rgb(0,0,0);stroke-width:1"/>
<line x1="666.0" y1="209.0" x2="668.0" y2="210.0" style="stroke:rgb(0,0,0);stroke-width:1"/>
<line x1="668.0" y1="210.0" x2="670.0" y2="211.0" style="stroke:rgb(0,0,0);stroke-width:1"/>
<line x1="670.0" y1="211.0" x2="672.0" y2="212.0" style="stroke:rgb(0,0,0);stroke-width:1"/>
<line x1="672.0" y1="212.0" x2="674.0" y2="213.0" style="stroke:rgb(0,0,0);stroke-width:1"/>
<line x1="674.0" y1="213.0" x2="676.0" y2="215.0" style="stroke:rgb(0,0,0);stroke-width:1"/>
<line x1="676.0" y1="215.0" x2="678.0" y2="216.0" style="stroke:rgb(0,0,0);stroke-width:1"/>
<line x1="678.0" y1="216.0" x2="680.0" y2="217.0" style="stroke:rgb(0,0,0);stroke-width:1"/>
<line x1="680.0" y1="217.0" x2="682.0" y2="218.0" style="stroke:rgb(0,0,0);stroke-width:1"/>
<line x1="682.0" y1="218.0" x2="684.0" y2="220.0" style="stroke:rgb(0,0,0);stroke-width:1"/>
<line x1="684.0" y1="220.0" x2="686.0" y2="221.0" style="stroke:rgb(0,0,0);stroke-width:1"/>
<line x1="686.0" y1="221.0" x2="688.0" y2="222.0" style="stroke:rgb(0,0,0);stroke-width:1"/>
<line x1="688.0" y1="222.0" x2="690.0" y2="224.0" style="stroke:rgb(0,0,0);stroke-width:1"/>
<line x1="690.0" y1="224.0" x2="692.0" y2="225.0" style="stroke:rgb(0,0,0);stroke-width:1"/>
<line x1="692.0" y1="225.0" x2="694.0" y2="227.0" style="stroke:rgb(0,0,0);stroke-width:1"/>
<line x1="694.0" y1="227.0" x2="696.0" y2="228.0" style="stroke:rgb(0,0,0);stroke-width:1"/>
<line x1="696.0" y1="228.0" x2="698.0" y2="230.0" style="stroke:rgb(0,0,0);stroke-width:1"/>
<line x1="698.0" y1="230.0" x2="700.0" y2="231.0" style="stroke:rgb(0,0,0);stroke-width:1"/>
<line x1="700.0" y1="231.0" x2="702.0" y2="233.0" style="stroke:rgb(0,0,0);stroke-width:1"/>
<line x1="702.0" y1="233.0" x2="704.0" y2="234.0" style="stroke:rgb(0,0,0);stroke-width:1"/>
<line x1="704.0" y1="234.0" x2="706.0" y2="236.0" style="stroke:rgb(0,0,0);stroke-width:1"/>
<line x1="706.0" y1="236.0" x2="708.0" y2="238.0" style="stroke:rgb(0,0,0);stroke-width:1"/>
<line x1="708.0" y1="238.0" x2="710.0" y2="239.0" style="stroke:rgb(0,0,0);stroke-width:1"/>
<line x1="710.0" y1="239.0" x2="712.0" y2="241.0" style="stroke:rgb(0,0,0);stroke-width:1"/>
<line x1="712.0" y1="241.0" x2="714.0" y2="243.0" style="stroke:rgb(0,0,0);stroke-width:1"/>
<line x1="714.0" y1="243.0" x2="716.0" y2="245.0" style="stroke:rgb(0,0,0);stroke-width:1"/>
<line x1="716.0" y1="245.0" x2="718.0" y2="247.0" style="stroke:rgb(0,0,0);stroke-width:1"/>
<line x1="718.0" y1="247.0" x2="720.0" y2="249.0" style="stroke:rgb(0,0,0);stroke-width:1"/>
<line x1="720.0" y1="249.0" x2="722.0" y2="251.0" style="stroke:rgb(0,0,0);stroke-width:1"/>
<line x1="722.0" y1="251.0" x2="724.0" y2="253.0" style="stroke:rgb(0,0,0);stroke-width:1"/>
<line x1="724.0" y1="253.0" x2="726.0" y2="255.0" style="stroke:rgb(0,0,0);stroke-width:1"/>
<line x1="726.0" y1="255.0" x2="728.0" y2="257.0" style="stroke:rgb(0,0,0);stroke-width:1"/>
<line x1="728.0" y1="257.0" x2="729.0" y2="259.0" style="stroke:rgb(0,0,0);stroke-width:1"/>
<line x1="729.0" y1="259.0" x2="731.0" y2="261.0" style="stroke:rgb(0,0,0);stroke-width:1"/>
<line x1="731.0" y1="261.0" x2="733.0" y2="264.0" style="stroke:rgb(0,0,0);stroke-width:1"/>
<line x1="733.0" y1="264.0" x2="735.0" y2="266.0" style="stroke:rgb(0,0,0);stroke-width:1"/>
<line x1="735.0" y1="266.0" x2="737.0" y2="269.0" style="stroke:rgb(0,0,0);stroke-width:1"/>
<line x1="737.0" y1="269.0" x2="739.0" y2="272.0" style="stroke:rgb(0,0,0);stroke-width:1"/>
<line x1="739.0" y1="272.0" x2="741.0" y2="275.0" style="stroke:rgb(0,0,0);stroke-width:1"/>
<line x1="741.0" y1="275.0" x2="743.0" y2="278.0" style="stroke:rgb(0,0,0);stroke-width:1"/>
<line x1="743.0" y1="278.0" x2="745.0" y2="281.0" style="stroke:rgb(0,0,0);stroke-width:1"/>
<line x1="745.0" y1="281.0" x2="746.0" y2="283.0" style="stroke:rgb(0,0,0);stroke-width:1"/>
<line x1="746.0" y1="283.0" x2="747.0" y2="285.0" style="stroke:rgb(0,0,0);stroke-width:1"/>
<line x1="747.0" y1="285.0" x2="748.0" y2="287.0" style="stroke:rgb(0,0,0);stroke-width:1"/>
<line x1="748.0" y1="287.0" x2="749.0" y2="289.0" style="stroke:rgb(0,0,0);stroke-width:1"/>
<line x1="749.0" y1="289.0" x2="750.0" y2="291.0" style="stroke:rgb(0,0,0);stroke-width:1"/>
<line x1="750.0" y1="291.0" x2="751.0" y2="293.0" style="stroke:rgb(0,0,0);stroke-width:1"/>
<line x1="751.0" y1="293.0" x2="752.0" y2="296.0" style="stroke:rgb(0,0,0);stroke-width:1"/>
<line x1="752.0" y1="296.0" x2="753.0" y2="298.0" style="stroke:rgb(0,0,0);stroke-width:1"/>
<line x1="753.0" y1="298.0" x2="754.0" y2="301.0" style="stroke:rgb(0,0,0);stroke-width:1"/>
<line x1="754.0" y1="301.0" x2="755.0" y2="305.0" style="stroke:rgb(0,0,0);stroke-width:1"/>
<line x1="755.0" y1="305.0" x2="756.0" y2="309.0" style="stroke:rgb(0,0,0);stroke-width:1"/>
<line x1="756.0" y1="309.0" x2="757.0" y2="314.0" style="stroke:rgb(0,0,0);stroke-width:1"/>
<line x1="757.0" y1="335.0" x2="757.0" y2="314.0" style="stroke:rgb(0,0,0);stroke-width:1"/>
<line x1="1501.0" y1="1200.0" x2="-359.0" y2="-499.0" style="stroke:rgb(153,153,224);stroke-width:1"/>
<line x1="1228.0" y1="1402.0" x2="-183.0" y2="-684.0" style="stroke:rgb(153,153,224);stroke-width:1"/>
<line x1="1003.0" y1="1498.0" x2="-21.0" y2="-803.0" style="stroke:rgb(153,153,224);stroke-width:1"/>
<line x1="754.0" y1="1550.0" x2="179.0" y2="-902.0" style="stroke:rgb(153,153,224);stroke-width:1"/>
<line x1="519.0" y1="1552.0" x2="393.0" y2="-964.0" style="stroke:rgb(153,153,224);stroke-width:1"/>
<line x1="344.0" y1="1524.0" x2="572.0" y2="-984.0" style="stroke:rgb(153,153,224);stroke-width:1"/>
<line x1="178.0" y1="1473.0" x2="762.0" y2="-978.0" style="stroke:rgb(153,153,224);stroke-width:1"/>
<line x1="62.0" y1="1420.0" x2="914.0" y2="-951.0" style="stroke:rgb(153,153,224);stroke-width:1"/>
<line x1="23.0" y1="1398.0" x2="980.0" y2="-932.0" style="stroke:rgb(153,153,224);stroke-width:1"/>
<line x1="18.0" y1="1394.0" x2="999.0" y2="-926.0" style="stroke:rgb(153,153,224);stroke-width:1"/>
<line x1="52.0" y1="1411.0" x2="988.0" y2="-928.0" style="stroke:rgb(153,153,224);stroke-width:1"/>
<line x1="246.0" y1="1489.0" x2="826.0" y2="-962.0" style="stroke:rgb(153,153,224);stroke-width:1"/>
<line x1="595.0" y1="1547.0" x2="518.0" y2="-971.0" style="stroke:rgb(153,153,224);stroke-width:1"/>
<line x1="1047.0" y1="1475.0" x2="123.0" y2="-869.0" style="stroke:rgb(153,153,224);stroke-width:1"/>
<line x1="1546.0" y1="1150.0" x2="-317.0" y2="-544.0" style="stroke:rgb(153,153,224);stroke-width:1"/>
<line x1="1642.0" y1="1037.0" x2="-435.0" y2="-388.0" style="stroke:rgb(153,153,224);stroke-width:1"/>
<line x1="1595.0" y1="1098.0" x2="-413.0" y2="-423.0" style="stroke:rgb(153,153,224);stroke-width:1"/>
</svg>
