<?xml version="1.0" encoding="utf-8"?>
<!DOCTYPE svg PUBLIC "-//W3C//DTD SVG 1.1//EN"
"http://www.w3.org/Graphics/SVG/1.1/DTD/svg11.dtd">
<svg xmlns="http://www.w3.org/2000/svg" width="1260" height="572">
<path d="M 464.99999999999994 306.0 H 469.99999999999994 V 311.0 H 464.99999999999994 Z" style="fill:none;stroke:rgb(0,0,0);stroke-width:1"/>
<text x="473.99999999999994" y="327.0" style="font-size:0;fill:rgb(0,0,0);font-weight:normal">A</text><path d="M 355.0 340.0 H 360.0 V 345.0 H 355.0 Z" style="fill:none;stroke:rgb(0,0,0);stroke-width:1"/>
<text x="364.0" y="361.0" style="font-size:0;fill:rgb(0,0,0);font-weight:normal">B</text><path d="M 384.0 409.0 H 389.0 V 414.0 H 384.0 Z" style="fill:none;stroke:rgb(0,0,0);stroke-width:1"/>
<text x="393.0" y="430.0" style="font-size:0;fill:rgb(0,0,0);font-weight:normal">C</text><path d="M 479.9999999999999 405.0 H 484.9999999999999 V 410.0 H 479.9999999999999 Z" style="fill:none;stroke:rgb(0,0,0);stroke-width:1"/>
<text x="488.9999999999999" y="426.0" style="font-size:0;fill:rgb(0,0,0);font-weight:normal">D</text><line x1="-109.0" y1="-770.0" x2="867.0" y2="1552.0" style="stroke:rgb(153,153,153);stroke-width:1"/>
<path d="M 411.1165763632533 473.51875065739563 H 416.1165763632533 V 478.51875065739563 H 411.1165763632533 Z" style="fill:none;stroke:rgb(0,0,0);stroke-width:1"/>
<text x="397.0" y="494.0" style="font-size:0;fill:rgb(0,0,0);font-weight:normal">F</text><line x1="104.0" y1="1439.0" x2="876.0" y2="-959.0" style="stroke:rgb(180,0,0);stroke-width:1"/>
<line x1="-274.0" y1="1161.0" x2="1511.0" y2="-615.0" style="stroke:rgb(153,153,153);stroke-width:1"/>
<line x1="1667.0" y1="1023.0" x2="-568.0" y2="-139.0" style="stroke:rgb(0,0,178);stroke-width:1"/>
<line x1="-513.0" y1="812.0" x2="1788.0" y2="-212.0" style="stroke:rgb(0,0,178);stroke-width:1"/>
<path d="M 550.4750942139341 334.8980051649899 H 555.4750942139341 V 339.8980051649899 H 550.4750942139341 Z" style="fill:none;stroke:rgb(0,0,0);stroke-width:1"/>
<text x="559.4750942139341" y="355.8980051649899" style="font-size:0;fill:rgb(0,0,0);font-weight:normal">E</text><line x1="-623.0" y1="454.0" x2="1894.0" y2="349.0" style="stroke:rgb(153,153,153);stroke-width:1"/>
<line x1="-586.0" y1="-48.0" x2="1800.0" y2="758.0" style="stroke:rgb(153,153,153);stroke-width:1"/>
<line x1="1826.0" y1="-111.0" x2="-580.0" y2="632.0" style="stroke:rgb(153,153,153);stroke-width:1"/>
<path d="M 631.1582432819273 254.64199753104066 H 636.1582432819273 V 259.64199753104066 H 631.1582432819273 Z" style="fill:none;stroke:rgb(0,0,0);stroke-width:1"/>
<text x="640.1582432819273" y="275.64199753104066" style="font-size:0;fill:rgb(0,0,0);font-weight:normal">H</text><path d="M 320.1240771251997 257.0193559185787 H 325.1240771251997 V 262.0193559185787 H 320.1240771251997 Z" style="fill:none;stroke:rgb(0,0,0);stroke-width:1"/>
<text x="329.1240771251997" y="278.0193559185787" style="font-size:0;fill:rgb(0,0,0);font-weight:normal">I</text><path d="M 92.46458923512773 421.14730878186964 H 97.46458923512773 V 426.14730878186964 H 92.46458923512773 Z" style="fill:none;stroke:rgb(0,0,0);stroke-width:1"/>
<text x="101.46458923512773" y="442.14730878186964" style="font-size:0;fill:rgb(0,0,0);font-weight:normal">J</text><line x1="1535.0" y1="-614.0" x2="-508.0" y2="859.0" style="stroke:rgb(0,124,124);stroke-width:1"/>
<line x1="358.0" y1="343.0" x2="467.99999999999994" y2="309.0" style="stroke:rgb(0,0,0);stroke-width:1"/>
<line x1="467.99999999999994" y1="309.0" x2="553.4750942139341" y2="337.8980051649899" style="stroke:rgb(0,0,0);stroke-width:1"/>
<line x1="553.4750942139341" y1="337.8980051649899" x2="482.9999999999999" y2="408.0" style="stroke:rgb(0,0,0);stroke-width:1"/>
<line x1="482.9999999999999" y1="408.0" x2="387.0" y2="412.0" style="stroke:rgb(0,0,0);stroke-width:1"/>
<line x1="387.0" y1="412.0" x2="358.0" y2="343.0" style="stroke:rgb(0,0,0);stroke-width:1"/>
<path d="M 727.3412192768209 394.69411586346575 H 732.3412192768209 V 399.69411586346575 H 727.3412192768209 Z" style="fill:none;stroke:rgb(0,0,0);stroke-width:1"/>
<text x="736.3412192768209" y="415.69411586346575" style="font-size:0;fill:rgb(0,0,0);font-weight:normal">G</text><line x1="1359.0" y1="1313.0" x2="-66.0" y2="-764.0" style="stroke:rgb(0,124,124);stroke-width:1"/>
</svg>
