<?xml version="1.0" encoding="utf-8"?>
<!DOCTYPE svg PUBLIC "-//W3C//DTD SVG 1.1//EN"
"http://www.w3.org/Graphics/SVG/1.1/DTD/svg11.dtd">
<svg xmlns="http://www.w3.org/2000/svg" width="1260" height="573">
<line x1="-629.0" y1="353.0" x2="1890.0" y2="347.0" style="stroke:rgb(0,0,0);stroke-width:1"/>
<text x="798.0" y="341.0" style="font-size:0;fill:rgb(0,0,0);font-weight:normal">line</text><path d="M 153.98336736731585 348.446742722418 H 158.98336736731585 V 353.446742722418 H 153.98336736731585 Z" style="fill:none;stroke:rgb(0,0,0);stroke-width:1"/>
<text x="162.98336736731585" y="369.446742722418" style="font-size:0;fill:rgb(0,0,0);font-weight:normal">A</text><path d="M 224.00068282690344 348.2690337999318 H 229.00068282690344 V 353.2690337999318 H 224.00068282690344 Z" style="fill:none;stroke:rgb(0,0,0);stroke-width:1"/>
<text x="233.00068282690344" y="369.2690337999318" style="font-size:0;fill:rgb(0,0,0);font-weight:normal">B</text><path d="M 404.99951686775705 347.80964589627473 H 409.99951686775705 V 352.80964589627473 H 404.99951686775705 Z" style="fill:none;stroke:rgb(0,0,0);stroke-width:1"/>
<text x="413.99951686775705" y="368.80964589627473" style="font-size:0;fill:rgb(0,0,0);font-weight:normal">C</text><path d="M 610.9753473720826 347.2868646005785 H 615.9753473720826 V 352.2868646005785 H 610.9753473720826 Z" style="fill:none;stroke:rgb(0,0,0);stroke-width:1"/>
<text x="619.9753473720826" y="368.2868646005785" style="font-size:0;fill:rgb(0,0,0);font-weight:normal">D</text><path d="M 733.9923214182186 346.9746387781263 H 738.9923214182186 V 351.9746387781263 H 733.9923214182186 Z" style="fill:none;stroke:rgb(0,0,0);stroke-width:1"/>
<text x="742.9923214182186" y="367.9746387781263" style="font-size:0;fill:rgb(0,0,0);font-weight:normal">E</text><path d="M 755.989641644711 346.91880801613013 H 760.989641644711 V 351.91880801613013 H 755.989641644711 Z" style="fill:none;stroke:rgb(0,0,0);stroke-width:1"/>
<text x="764.989641644711" y="367.91880801613013" style="font-size:0;fill:rgb(0,0,0);font-weight:normal">F</text><path d="M 973.011086274535 346.36799216681584 H 978.011086274535 V 351.36799216681584 H 973.011086274535 Z" style="fill:none;stroke:rgb(0,0,0);stroke-width:1"/>
<text x="982.011086274535" y="367.36799216681584" style="font-size:0;fill:rgb(0,0,0);font-weight:normal">G</text><path d="M 541.9935582367606 347.46194528366306 H 546.9935582367606 V 352.46194528366306 H 541.9935582367606 Z" style="fill:none;stroke:rgb(0,0,0);stroke-width:1"/>
<text x="518.0" y="375.0" style="font-size:0;fill:rgb(0,0,0);font-weight:normal">South</text><ellipse cx="544.7741260137725" cy="264.005649426361" rx="86.45657432414163" ry="86.45657432414163" style="stroke:rgb(0,0,0);fill:none;stroke-width:1"/>
<path d="M 541.5546937907844 174.549353569059 H 546.5546937907844 V 179.549353569059 H 541.5546937907844 Z" style="fill:none;stroke:rgb(0,0,0);stroke-width:1"/>
<text x="525.0" y="163.0" style="font-size:0;fill:rgb(0,0,0);font-weight:normal">North</text><line x1="544.5546937907844" y1="177.549353569059" x2="-574.5975792320445" y2="679.6960426434562" style="stroke:rgb(153,153,153);stroke-width:1"/>
<line x1="544.5546937907844" y1="177.549353569059" x2="-540.9583215202049" y2="771.3852598890212" style="stroke:rgb(153,153,153);stroke-width:1"/>
<line x1="544.5546937907844" y1="177.549353569059" x2="-255.61769839294246" y2="1192.8027163915226" style="stroke:rgb(153,153,153);stroke-width:1"/>
<line x1="544.5546937907844" y1="177.549353569059" x2="1063.984930748062" y2="1470.033386169469" style="stroke:rgb(153,153,153);stroke-width:1"/>
<line x1="544.5546937907844" y1="177.549353569059" x2="1584.5103635386654" y2="1109.355961101263" style="stroke:rgb(153,153,153);stroke-width:1"/>
<line x1="544.5546937907844" y1="177.549353569059" x2="1631.7196511257046" y2="1051.4462274939508" style="stroke:rgb(153,153,153);stroke-width:1"/>
<line x1="544.5546937907844" y1="177.549353569059" x2="1826.3467707111572" y2="687.996697630937" style="stroke:rgb(153,153,153);stroke-width:1"/>
<path d="M 477.338231750517 203.36230831604382 H 482.338231750517 V 208.36230831604382 H 477.338231750517 Z" style="fill:none;stroke:rgb(0,0,0);stroke-width:1"/>
<text x="486.338231750517" y="224.36230831604382" style="font-size:0;fill:rgb(0,0,0);font-weight:normal">A&apos;</text><path d="M 469.0878903630643 214.19271968685905 H 474.0878903630643 V 219.19271968685905 H 469.0878903630643 Z" style="fill:none;stroke:rgb(0,0,0);stroke-width:1"/>
<text x="478.0878903630643" y="235.19271968685905" style="font-size:0;fill:rgb(0,0,0);font-weight:normal">B&apos;</text><path d="M 457.65998277761423 280.9944000504714 H 462.65998277761423 V 285.9944000504714 H 457.65998277761423 Z" style="fill:none;stroke:rgb(0,0,0);stroke-width:1"/>
<text x="466.65998277761423" y="301.9944000504714" style="font-size:0;fill:rgb(0,0,0);font-weight:normal">C&apos;</text><path d="M 601.4437983190061 323.5697721393973 H 606.4437983190061 V 328.5697721393973 H 601.4437983190061 Z" style="fill:none;stroke:rgb(0,0,0);stroke-width:1"/>
<text x="610.4437983190061" y="344.5697721393973" style="font-size:0;fill:rgb(0,0,0);font-weight:normal">D&apos;</text><path d="M 627.7357899390571 251.76814007252324 H 632.7357899390571 V 256.76814007252324 H 627.7357899390571 Z" style="fill:none;stroke:rgb(0,0,0);stroke-width:1"/>
<text x="636.7357899390571" y="272.76814007252324" style="font-size:0;fill:rgb(0,0,0);font-weight:normal">E&apos;</text><path d="M 626.2564828354692 242.63527573072446 H 631.2564828354692 V 247.63527573072446 H 626.2564828354692 Z" style="fill:none;stroke:rgb(0,0,0);stroke-width:1"/>
<text x="639.0" y="249.0" style="font-size:0;fill:rgb(0,0,0);font-weight:normal">F&apos;</text><path d="M 601.3670065839368 198.36837754119705 H 606.3670065839368 V 203.36837754119705 H 601.3670065839368 Z" style="fill:none;stroke:rgb(0,0,0);stroke-width:1"/>
<text x="610.3670065839368" y="219.36837754119705" style="font-size:0;fill:rgb(0,0,0);font-weight:normal">G&apos;</text><line x1="-629.0" y1="181.0" x2="1890.0" y2="174.0" style="stroke:rgb(0,0,0);stroke-width:1"/>
<text x="756.0" y="168.0" style="font-size:0;fill:rgb(0,0,0);font-weight:normal">inverted line</text><line x1="544.9935582367606" y1="350.46194528366306" x2="-423.2559906562573" y2="-412.6643699197107" style="stroke:rgb(153,202,153);stroke-width:1"/>
<line x1="544.9935582367606" y1="350.46194528366306" x2="-67.07456860528738" y2="-768.3789851367246" style="stroke:rgb(153,202,153);stroke-width:1"/>
<line x1="544.9935582367606" y1="350.46194528366306" x2="19.54771290180081" y2="-820.6179900256327" style="stroke:rgb(153,202,153);stroke-width:1"/>
<line x1="544.9935582367606" y1="350.46194528366306" x2="1044.7791718509097" y2="-904.5572984088749" style="stroke:rgb(153,202,153);stroke-width:1"/>
<line x1="544.9935582367606" y1="350.46194528366306" x2="1399.0012874329796" y2="-711.960068317791" style="stroke:rgb(153,202,153);stroke-width:1"/>
<line x1="544.9935582367606" y1="350.46194528366306" x2="1455.4601947956976" y2="-665.6769543034231" style="stroke:rgb(153,202,153);stroke-width:1"/>
<line x1="544.9935582367606" y1="350.46194528366306" x2="1809.4296176219577" y2="-157.69622563188773" style="stroke:rgb(153,202,153);stroke-width:1"/>
<path d="M 323.3060453482816 175.10328414886237 H 328.3060453482816 V 180.10328414886237 H 323.3060453482816 Z" style="fill:none;stroke:rgb(0,0,0);stroke-width:1"/>
<text x="332.3060453482816" y="196.10328414886237" style="font-size:0;fill:rgb(0,0,0);font-weight:normal">C&apos;&apos;</text><path d="M 447.53131564143064 174.78799158466649 H 452.53131564143064 V 179.78799158466649 H 447.53131564143064 Z" style="fill:none;stroke:rgb(0,0,0);stroke-width:1"/>
<text x="456.53131564143064" y="195.78799158466649" style="font-size:0;fill:rgb(0,0,0);font-weight:normal">B&apos;&apos;</text><path d="M 464.4980466278198 174.7449288156655 H 469.4980466278198 V 179.7449288156655 H 464.4980466278198 Z" style="fill:none;stroke:rgb(0,0,0);stroke-width:1"/>
<text x="473.4980466278198" y="195.7449288156655" style="font-size:0;fill:rgb(0,0,0);font-weight:normal">A&apos;&apos;</text><path d="M 610.9225557187593 174.37329300579006 H 615.9225557187593 V 179.37329300579006 H 610.9225557187593 Z" style="fill:none;stroke:rgb(0,0,0);stroke-width:1"/>
<text x="619.9225557187593" y="195.37329300579006" style="font-size:0;fill:rgb(0,0,0);font-weight:normal">G&apos;&apos;</text><path d="M 681.271103069472 174.19474339322483 H 686.271103069472 V 179.19474339322483 H 681.271103069472 Z" style="fill:none;stroke:rgb(0,0,0);stroke-width:1"/>
<text x="690.271103069472" y="195.19474339322483" style="font-size:0;fill:rgb(0,0,0);font-weight:normal">F&apos;&apos;</text><path d="M 697.278428037989 174.1541156648782 H 702.278428037989 V 179.1541156648782 H 697.278428037989 Z" style="fill:none;stroke:rgb(0,0,0);stroke-width:1"/>
<text x="706.278428037989" y="195.1541156648782" style="font-size:0;fill:rgb(0,0,0);font-weight:normal">E&apos;&apos;</text><path d="M 974.9845127073204 173.44927788652973 H 979.9845127073204 V 178.44927788652973 H 974.9845127073204 Z" style="fill:none;stroke:rgb(0,0,0);stroke-width:1"/>
<text x="983.9845127073204" y="194.44927788652973" style="font-size:0;fill:rgb(0,0,0);font-weight:normal">D&apos;&apos;</text></svg>
