<?xml version="1.0" encoding="utf-8"?>
<!DOCTYPE svg PUBLIC "-//W3C//DTD SVG 1.1//EN"
"http://www.w3.org/Graphics/SVG/1.1/DTD/svg11.dtd">
<svg xmlns="http://www.w3.org/2000/svg" width="1260" height="572">
<line x1="291.0" y1="307.0" x2="292.0" y2="314.0" style="stroke:rgb(0,0,0);stroke-width:1"/>
<line x1="292.0" y1="314.0" x2="293.0" y2="319.0" style="stroke:rgb(0,0,0);stroke-width:1"/>
<line x1="293.0" y1="319.0" x2="294.0" y2="323.0" style="stroke:rgb(0,0,0);stroke-width:1"/>
<line x1="294.0" y1="323.0" x2="295.0" y2="327.0" style="stroke:rgb(0,0,0);stroke-width:1"/>
<line x1="295.0" y1="327.0" x2="296.0" y2="330.0" style="stroke:rgb(0,0,0);stroke-width:1"/>
<line x1="296.0" y1="330.0" x2="297.0" y2="333.0" style="stroke:rgb(0,0,0);stroke-width:1"/>
<line x1="297.0" y1="333.0" x2="298.0" y2="336.0" style="stroke:rgb(0,0,0);stroke-width:1"/>
<line x1="298.0" y1="336.0" x2="299.0" y2="339.0" style="stroke:rgb(0,0,0);stroke-width:1"/>
<line x1="299.0" y1="339.0" x2="300.0" y2="341.0" style="stroke:rgb(0,0,0);stroke-width:1"/>
<line x1="300.0" y1="341.0" x2="301.0" y2="343.0" style="stroke:rgb(0,0,0);stroke-width:1"/>
<line x1="301.0" y1="343.0" x2="302.0" y2="346.0" style="stroke:rgb(0,0,0);stroke-width:1"/>
<line x1="302.0" y1="346.0" x2="303.0" y2="348.0" style="stroke:rgb(0,0,0);stroke-width:1"/>
<line x1="303.0" y1="348.0" x2="304.0" y2="350.0" style="stroke:rgb(0,0,0);stroke-width:1"/>
<line x1="304.0" y1="350.0" x2="305.0" y2="352.0" style="stroke:rgb(0,0,0);stroke-width:1"/>
<line x1="305.0" y1="352.0" x2="306.0" y2="354.0" style="stroke:rgb(0,0,0);stroke-width:1"/>
<line x1="306.0" y1="354.0" x2="307.0" y2="356.0" style="stroke:rgb(0,0,0);stroke-width:1"/>
<line x1="307.0" y1="356.0" x2="308.0" y2="358.0" style="stroke:rgb(0,0,0);stroke-width:1"/>
<line x1="308.0" y1="358.0" x2="309.0" y2="360.0" style="stroke:rgb(0,0,0);stroke-width:1"/>
<line x1="309.0" y1="360.0" x2="311.0" y2="363.0" style="stroke:rgb(0,0,0);stroke-width:1"/>
<line x1="311.0" y1="363.0" x2="312.0" y2="365.0" style="stroke:rgb(0,0,0);stroke-width:1"/>
<line x1="312.0" y1="365.0" x2="314.0" y2="368.0" style="stroke:rgb(0,0,0);stroke-width:1"/>
<line x1="314.0" y1="368.0" x2="316.0" y2="371.0" style="stroke:rgb(0,0,0);stroke-width:1"/>
<line x1="316.0" y1="371.0" x2="318.0" y2="374.0" style="stroke:rgb(0,0,0);stroke-width:1"/>
<line x1="318.0" y1="374.0" x2="320.0" y2="376.0" style="stroke:rgb(0,0,0);stroke-width:1"/>
<line x1="320.0" y1="376.0" x2="321.0" y2="378.0" style="stroke:rgb(0,0,0);stroke-width:1"/>
<line x1="321.0" y1="378.0" x2="323.0" y2="380.0" style="stroke:rgb(0,0,0);stroke-width:1"/>
<line x1="323.0" y1="380.0" x2="324.0" y2="382.0" style="stroke:rgb(0,0,0);stroke-width:1"/>
<line x1="324.0" y1="382.0" x2="326.0" y2="384.0" style="stroke:rgb(0,0,0);stroke-width:1"/>
<line x1="326.0" y1="384.0" x2="328.0" y2="386.0" style="stroke:rgb(0,0,0);stroke-width:1"/>
<line x1="328.0" y1="386.0" x2="329.0" y2="388.0" style="stroke:rgb(0,0,0);stroke-width:1"/>
<line x1="329.0" y1="388.0" x2="331.0" y2="390.0" style="stroke:rgb(0,0,0);stroke-width:1"/>
<line x1="331.0" y1="390.0" x2="333.0" y2="392.0" style="stroke:rgb(0,0,0);stroke-width:1"/>
<line x1="333.0" y1="392.0" x2="335.0" y2="394.0" style="stroke:rgb(0,0,0);stroke-width:1"/>
<line x1="335.0" y1="394.0" x2="337.0" y2="396.0" style="stroke:rgb(0,0,0);stroke-width:1"/>
<line x1="337.0" y1="396.0" x2="339.0" y2="398.0" style="stroke:rgb(0,0,0);stroke-width:1"/>
<line x1="339.0" y1="398.0" x2="341.0" y2="400.0" style="stroke:rgb(0,0,0);stroke-width:1"/>
<line x1="341.0" y1="400.0" x2="343.0" y2="402.0" style="stroke:rgb(0,0,0);stroke-width:1"/>
<line x1="343.0" y1="402.0" x2="345.0" y2="404.0" style="stroke:rgb(0,0,0);stroke-width:1"/>
<line x1="345.0" y1="404.0" x2="347.0" y2="406.0" style="stroke:rgb(0,0,0);stroke-width:1"/>
<line x1="347.0" y1="406.0" x2="349.0" y2="408.0" style="stroke:rgb(0,0,0);stroke-width:1"/>
<line x1="349.0" y1="408.0" x2="351.0" y2="410.0" style="stroke:rgb(0,0,0);stroke-width:1"/>
<line x1="351.0" y1="410.0" x2="353.0" y2="411.0" style="stroke:rgb(0,0,0);stroke-width:1"/>
<line x1="353.0" y1="411.0" x2="355.0" y2="413.0" style="stroke:rgb(0,0,0);stroke-width:1"/>
<line x1="355.0" y1="413.0" x2="357.0" y2="415.0" style="stroke:rgb(0,0,0);stroke-width:1"/>
<line x1="357.0" y1="415.0" x2="359.0" y2="416.0" style="stroke:rgb(0,0,0);stroke-width:1"/>
<line x1="359.0" y1="416.0" x2="361.0" y2="418.0" style="stroke:rgb(0,0,0);stroke-width:1"/>
<line x1="361.0" y1="418.0" x2="363.0" y2="419.0" style="stroke:rgb(0,0,0);stroke-width:1"/>
<line x1="363.0" y1="419.0" x2="365.0" y2="421.0" style="stroke:rgb(0,0,0);stroke-width:1"/>
<line x1="365.0" y1="421.0" x2="367.0" y2="422.0" style="stroke:rgb(0,0,0);stroke-width:1"/>
<line x1="367.0" y1="422.0" x2="369.0" y2="424.0" style="stroke:rgb(0,0,0);stroke-width:1"/>
<line x1="369.0" y1="424.0" x2="371.0" y2="425.0" style="stroke:rgb(0,0,0);stroke-width:1"/>
<line x1="371.0" y1="425.0" x2="373.0" y2="426.0" style="stroke:rgb(0,0,0);stroke-width:1"/>
<line x1="373.0" y1="426.0" x2="375.0" y2="428.0" style="stroke:rgb(0,0,0);stroke-width:1"/>
<line x1="375.0" y1="428.0" x2="377.0" y2="429.0" style="stroke:rgb(0,0,0);stroke-width:1"/>
<line x1="377.0" y1="429.0" x2="379.0" y2="430.0" style="stroke:rgb(0,0,0);stroke-width:1"/>
<line x1="379.0" y1="430.0" x2="381.0" y2="432.0" style="stroke:rgb(0,0,0);stroke-width:1"/>
<line x1="381.0" y1="432.0" x2="383.0" y2="433.0" style="stroke:rgb(0,0,0);stroke-width:1"/>
<line x1="383.0" y1="433.0" x2="385.0" y2="434.0" style="stroke:rgb(0,0,0);stroke-width:1"/>
<line x1="385.0" y1="434.0" x2="387.0" y2="435.0" style="stroke:rgb(0,0,0);stroke-width:1"/>
<line x1="387.0" y1="435.0" x2="389.0" y2="437.0" style="stroke:rgb(0,0,0);stroke-width:1"/>
<line x1="389.0" y1="437.0" x2="391.0" y2="438.0" style="stroke:rgb(0,0,0);stroke-width:1"/>
<line x1="391.0" y1="438.0" x2="393.0" y2="439.0" style="stroke:rgb(0,0,0);stroke-width:1"/>
<line x1="393.0" y1="439.0" x2="395.0" y2="440.0" style="stroke:rgb(0,0,0);stroke-width:1"/>
<line x1="395.0" y1="440.0" x2="397.0" y2="441.0" style="stroke:rgb(0,0,0);stroke-width:1"/>
<line x1="397.0" y1="441.0" x2="399.0" y2="442.0" style="stroke:rgb(0,0,0);stroke-width:1"/>
<line x1="399.0" y1="442.0" x2="401.0" y2="443.0" style="stroke:rgb(0,0,0);stroke-width:1"/>
<line x1="401.0" y1="443.0" x2="403.0" y2="444.0" style="stroke:rgb(0,0,0);stroke-width:1"/>
<line x1="403.0" y1="444.0" x2="405.0" y2="445.0" style="stroke:rgb(0,0,0);stroke-width:1"/>
<line x1="405.0" y1="445.0" x2="407.0" y2="446.0" style="stroke:rgb(0,0,0);stroke-width:1"/>
<line x1="407.0" y1="446.0" x2="409.0" y2="447.0" style="stroke:rgb(0,0,0);stroke-width:1"/>
<line x1="409.0" y1="447.0" x2="411.0" y2="448.0" style="stroke:rgb(0,0,0);stroke-width:1"/>
<line x1="411.0" y1="448.0" x2="413.0" y2="449.0" style="stroke:rgb(0,0,0);stroke-width:1"/>
<line x1="413.0" y1="449.0" x2="415.0" y2="450.0" style="stroke:rgb(0,0,0);stroke-width:1"/>
<line x1="415.0" y1="450.0" x2="417.0" y2="451.0" style="stroke:rgb(0,0,0);stroke-width:1"/>
<line x1="417.0" y1="451.0" x2="419.0" y2="452.0" style="stroke:rgb(0,0,0);stroke-width:1"/>
<line x1="419.0" y1="452.0" x2="421.0" y2="453.0" style="stroke:rgb(0,0,0);stroke-width:1"/>
<line x1="421.0" y1="453.0" x2="424.0" y2="454.0" style="stroke:rgb(0,0,0);stroke-width:1"/>
<line x1="424.0" y1="454.0" x2="426.0" y2="455.0" style="stroke:rgb(0,0,0);stroke-width:1"/>
<line x1="426.0" y1="455.0" x2="428.0" y2="456.0" style="stroke:rgb(0,0,0);stroke-width:1"/>
<line x1="428.0" y1="456.0" x2="431.0" y2="457.0" style="stroke:rgb(0,0,0);stroke-width:1"/>
<line x1="431.0" y1="457.0" x2="433.0" y2="458.0" style="stroke:rgb(0,0,0);stroke-width:1"/>
<line x1="433.0" y1="458.0" x2="436.0" y2="459.0" style="stroke:rgb(0,0,0);stroke-width:1"/>
<line x1="436.0" y1="459.0" x2="439.0" y2="460.0" style="stroke:rgb(0,0,0);stroke-width:1"/>
<line x1="439.0" y1="460.0" x2="442.0" y2="461.0" style="stroke:rgb(0,0,0);stroke-width:1"/>
<line x1="442.0" y1="461.0" x2="444.0" y2="462.0" style="stroke:rgb(0,0,0);stroke-width:1"/>
<line x1="444.0" y1="462.0" x2="447.0" y2="463.0" style="stroke:rgb(0,0,0);stroke-width:1"/>
<line x1="447.0" y1="463.0" x2="450.0" y2="464.0" style="stroke:rgb(0,0,0);stroke-width:1"/>
<line x1="450.0" y1="464.0" x2="453.0" y2="464.0" style="stroke:rgb(0,0,0);stroke-width:1"/>
<line x1="453.0" y1="464.0" x2="455.0" y2="465.0" style="stroke:rgb(0,0,0);stroke-width:1"/>
<line x1="455.0" y1="465.0" x2="457.0" y2="466.0" style="stroke:rgb(0,0,0);stroke-width:1"/>
<line x1="457.0" y1="466.0" x2="460.0" y2="467.0" style="stroke:rgb(0,0,0);stroke-width:1"/>
<line x1="460.0" y1="467.0" x2="463.0" y2="467.0" style="stroke:rgb(0,0,0);stroke-width:1"/>
<line x1="463.0" y1="467.0" x2="465.0" y2="468.0" style="stroke:rgb(0,0,0);stroke-width:1"/>
<line x1="465.0" y1="468.0" x2="467.0" y2="469.0" style="stroke:rgb(0,0,0);stroke-width:1"/>
<line x1="467.0" y1="469.0" x2="470.0" y2="469.0" style="stroke:rgb(0,0,0);stroke-width:1"/>
<line x1="470.0" y1="469.0" x2="472.0" y2="470.0" style="stroke:rgb(0,0,0);stroke-width:1"/>
<line x1="472.0" y1="470.0" x2="475.0" y2="471.0" style="stroke:rgb(0,0,0);stroke-width:1"/>
<line x1="475.0" y1="471.0" x2="478.0" y2="471.0" style="stroke:rgb(0,0,0);stroke-width:1"/>
<line x1="478.0" y1="471.0" x2="480.0" y2="472.0" style="stroke:rgb(0,0,0);stroke-width:1"/>
<line x1="480.0" y1="472.0" x2="483.0" y2="472.0" style="stroke:rgb(0,0,0);stroke-width:1"/>
<line x1="483.0" y1="472.0" x2="485.0" y2="473.0" style="stroke:rgb(0,0,0);stroke-width:1"/>
<line x1="485.0" y1="473.0" x2="488.0" y2="473.0" style="stroke:rgb(0,0,0);stroke-width:1"/>
<line x1="488.0" y1="473.0" x2="490.0" y2="474.0" style="stroke:rgb(0,0,0);stroke-width:1"/>
<line x1="490.0" y1="474.0" x2="493.0" y2="474.0" style="stroke:rgb(0,0,0);stroke-width:1"/>
<line x1="493.0" y1="474.0" x2="495.0" y2="475.0" style="stroke:rgb(0,0,0);stroke-width:1"/>
<line x1="495.0" y1="475.0" x2="498.0" y2="475.0" style="stroke:rgb(0,0,0);stroke-width:1"/>
<line x1="498.0" y1="475.0" x2="500.0" y2="476.0" style="stroke:rgb(0,0,0);stroke-width:1"/>
<line x1="500.0" y1="476.0" x2="503.0" y2="476.0" style="stroke:rgb(0,0,0);stroke-width:1"/>
<line x1="503.0" y1="476.0" x2="506.0" y2="477.0" style="stroke:rgb(0,0,0);stroke-width:1"/>
<line x1="506.0" y1="477.0" x2="509.0" y2="477.0" style="stroke:rgb(0,0,0);stroke-width:1"/>
<line x1="509.0" y1="477.0" x2="512.0" y2="477.0" style="stroke:rgb(0,0,0);stroke-width:1"/>
<line x1="512.0" y1="477.0" x2="514.0" y2="478.0" style="stroke:rgb(0,0,0);stroke-width:1"/>
<line x1="514.0" y1="478.0" x2="517.0" y2="478.0" style="stroke:rgb(0,0,0);stroke-width:1"/>
<line x1="517.0" y1="478.0" x2="520.0" y2="478.0" style="stroke:rgb(0,0,0);stroke-width:1"/>
<line x1="520.0" y1="478.0" x2="522.0" y2="479.0" style="stroke:rgb(0,0,0);stroke-width:1"/>
<line x1="522.0" y1="479.0" x2="525.0" y2="479.0" style="stroke:rgb(0,0,0);stroke-width:1"/>
<line x1="525.0" y1="479.0" x2="528.0" y2="479.0" style="stroke:rgb(0,0,0);stroke-width:1"/>
<line x1="528.0" y1="479.0" x2="531.0" y2="479.0" style="stroke:rgb(0,0,0);stroke-width:1"/>
<line x1="531.0" y1="479.0" x2="533.0" y2="480.0" style="stroke:rgb(0,0,0);stroke-width:1"/>
<line x1="533.0" y1="480.0" x2="536.0" y2="480.0" style="stroke:rgb(0,0,0);stroke-width:1"/>
<line x1="536.0" y1="480.0" x2="539.0" y2="480.0" style="stroke:rgb(0,0,0);stroke-width:1"/>
<line x1="539.0" y1="480.0" x2="542.0" y2="480.0" style="stroke:rgb(0,0,0);stroke-width:1"/>
<line x1="542.0" y1="480.0" x2="545.0" y2="480.0" style="stroke:rgb(0,0,0);stroke-width:1"/>
<line x1="545.0" y1="480.0" x2="548.0" y2="480.0" style="stroke:rgb(0,0,0);stroke-width:1"/>
<line x1="548.0" y1="480.0" x2="551.0" y2="480.0" style="stroke:rgb(0,0,0);stroke-width:1"/>
<line x1="551.0" y1="480.0" x2="554.0" y2="480.0" style="stroke:rgb(0,0,0);stroke-width:1"/>
<line x1="554.0" y1="480.0" x2="557.0" y2="480.0" style="stroke:rgb(0,0,0);stroke-width:1"/>
<line x1="557.0" y1="480.0" x2="560.0" y2="480.0" style="stroke:rgb(0,0,0);stroke-width:1"/>
<line x1="560.0" y1="480.0" x2="563.0" y2="480.0" style="stroke:rgb(0,0,0);stroke-width:1"/>
<line x1="563.0" y1="480.0" x2="566.0" y2="480.0" style="stroke:rgb(0,0,0);stroke-width:1"/>
<line x1="566.0" y1="480.0" x2="569.0" y2="480.0" style="stroke:rgb(0,0,0);stroke-width:1"/>
<line x1="569.0" y1="480.0" x2="572.0" y2="480.0" style="stroke:rgb(0,0,0);stroke-width:1"/>
<line x1="572.0" y1="480.0" x2="575.0" y2="480.0" style="stroke:rgb(0,0,0);stroke-width:1"/>
<line x1="575.0" y1="480.0" x2="578.0" y2="480.0" style="stroke:rgb(0,0,0);stroke-width:1"/>
<line x1="578.0" y1="480.0" x2="581.0" y2="480.0" style="stroke:rgb(0,0,0);stroke-width:1"/>
<line x1="581.0" y1="480.0" x2="584.0" y2="480.0" style="stroke:rgb(0,0,0);stroke-width:1"/>
<line x1="584.0" y1="480.0" x2="586.0" y2="479.0" style="stroke:rgb(0,0,0);stroke-width:1"/>
<line x1="586.0" y1="479.0" x2="589.0" y2="479.0" style="stroke:rgb(0,0,0);stroke-width:1"/>
<line x1="589.0" y1="479.0" x2="592.0" y2="479.0" style="stroke:rgb(0,0,0);stroke-width:1"/>
<line x1="592.0" y1="479.0" x2="595.0" y2="479.0" style="stroke:rgb(0,0,0);stroke-width:1"/>
<line x1="595.0" y1="479.0" x2="597.0" y2="478.0" style="stroke:rgb(0,0,0);stroke-width:1"/>
<line x1="597.0" y1="478.0" x2="600.0" y2="478.0" style="stroke:rgb(0,0,0);stroke-width:1"/>
<line x1="600.0" y1="478.0" x2="603.0" y2="478.0" style="stroke:rgb(0,0,0);stroke-width:1"/>
<line x1="603.0" y1="478.0" x2="605.0" y2="477.0" style="stroke:rgb(0,0,0);stroke-width:1"/>
<line x1="605.0" y1="477.0" x2="608.0" y2="477.0" style="stroke:rgb(0,0,0);stroke-width:1"/>
<line x1="608.0" y1="477.0" x2="611.0" y2="476.0" style="stroke:rgb(0,0,0);stroke-width:1"/>
<line x1="611.0" y1="476.0" x2="614.0" y2="476.0" style="stroke:rgb(0,0,0);stroke-width:1"/>
<line x1="614.0" y1="476.0" x2="617.0" y2="475.0" style="stroke:rgb(0,0,0);stroke-width:1"/>
<line x1="617.0" y1="475.0" x2="620.0" y2="475.0" style="stroke:rgb(0,0,0);stroke-width:1"/>
<line x1="620.0" y1="475.0" x2="623.0" y2="474.0" style="stroke:rgb(0,0,0);stroke-width:1"/>
<line x1="623.0" y1="474.0" x2="626.0" y2="474.0" style="stroke:rgb(0,0,0);stroke-width:1"/>
<line x1="626.0" y1="474.0" x2="628.0" y2="473.0" style="stroke:rgb(0,0,0);stroke-width:1"/>
<line x1="628.0" y1="473.0" x2="631.0" y2="473.0" style="stroke:rgb(0,0,0);stroke-width:1"/>
<line x1="631.0" y1="473.0" x2="633.0" y2="472.0" style="stroke:rgb(0,0,0);stroke-width:1"/>
<line x1="633.0" y1="472.0" x2="636.0" y2="472.0" style="stroke:rgb(0,0,0);stroke-width:1"/>
<line x1="636.0" y1="472.0" x2="638.0" y2="471.0" style="stroke:rgb(0,0,0);stroke-width:1"/>
<line x1="638.0" y1="471.0" x2="641.0" y2="470.0" style="stroke:rgb(0,0,0);stroke-width:1"/>
<line x1="641.0" y1="470.0" x2="644.0" y2="469.0" style="stroke:rgb(0,0,0);stroke-width:1"/>
<line x1="644.0" y1="469.0" x2="647.0" y2="469.0" style="stroke:rgb(0,0,0);stroke-width:1"/>
<line x1="647.0" y1="469.0" x2="649.0" y2="468.0" style="stroke:rgb(0,0,0);stroke-width:1"/>
<line x1="649.0" y1="468.0" x2="652.0" y2="467.0" style="stroke:rgb(0,0,0);stroke-width:1"/>
<line x1="652.0" y1="467.0" x2="655.0" y2="466.0" style="stroke:rgb(0,0,0);stroke-width:1"/>
<line x1="655.0" y1="466.0" x2="658.0" y2="465.0" style="stroke:rgb(0,0,0);stroke-width:1"/>
<line x1="658.0" y1="465.0" x2="661.0" y2="464.0" style="stroke:rgb(0,0,0);stroke-width:1"/>
<line x1="661.0" y1="464.0" x2="664.0" y2="463.0" style="stroke:rgb(0,0,0);stroke-width:1"/>
<line x1="664.0" y1="463.0" x2="667.0" y2="462.0" style="stroke:rgb(0,0,0);stroke-width:1"/>
<line x1="667.0" y1="462.0" x2="670.0" y2="461.0" style="stroke:rgb(0,0,0);stroke-width:1"/>
<line x1="670.0" y1="461.0" x2="672.0" y2="460.0" style="stroke:rgb(0,0,0);stroke-width:1"/>
<line x1="672.0" y1="460.0" x2="675.0" y2="459.0" style="stroke:rgb(0,0,0);stroke-width:1"/>
<line x1="675.0" y1="459.0" x2="677.0" y2="458.0" style="stroke:rgb(0,0,0);stroke-width:1"/>
<line x1="677.0" y1="458.0" x2="680.0" y2="457.0" style="stroke:rgb(0,0,0);stroke-width:1"/>
<line x1="680.0" y1="457.0" x2="682.0" y2="456.0" style="stroke:rgb(0,0,0);stroke-width:1"/>
<line x1="682.0" y1="456.0" x2="684.0" y2="455.0" style="stroke:rgb(0,0,0);stroke-width:1"/>
<line x1="684.0" y1="455.0" x2="687.0" y2="454.0" style="stroke:rgb(0,0,0);stroke-width:1"/>
<line x1="687.0" y1="454.0" x2="689.0" y2="453.0" style="stroke:rgb(0,0,0);stroke-width:1"/>
<line x1="689.0" y1="453.0" x2="691.0" y2="452.0" style="stroke:rgb(0,0,0);stroke-width:1"/>
<line x1="691.0" y1="452.0" x2="693.0" y2="451.0" style="stroke:rgb(0,0,0);stroke-width:1"/>
<line x1="693.0" y1="451.0" x2="695.0" y2="450.0" style="stroke:rgb(0,0,0);stroke-width:1"/>
<line x1="695.0" y1="450.0" x2="697.0" y2="449.0" style="stroke:rgb(0,0,0);stroke-width:1"/>
<line x1="697.0" y1="449.0" x2="699.0" y2="448.0" style="stroke:rgb(0,0,0);stroke-width:1"/>
<line x1="699.0" y1="448.0" x2="701.0" y2="447.0" style="stroke:rgb(0,0,0);stroke-width:1"/>
<line x1="701.0" y1="447.0" x2="703.0" y2="446.0" style="stroke:rgb(0,0,0);stroke-width:1"/>
<line x1="703.0" y1="446.0" x2="705.0" y2="445.0" style="stroke:rgb(0,0,0);stroke-width:1"/>
<line x1="705.0" y1="445.0" x2="707.0" y2="444.0" style="stroke:rgb(0,0,0);stroke-width:1"/>
<line x1="707.0" y1="444.0" x2="709.0" y2="443.0" style="stroke:rgb(0,0,0);stroke-width:1"/>
<line x1="709.0" y1="443.0" x2="711.0" y2="441.0" style="stroke:rgb(0,0,0);stroke-width:1"/>
<line x1="711.0" y1="441.0" x2="713.0" y2="440.0" style="stroke:rgb(0,0,0);stroke-width:1"/>
<line x1="713.0" y1="440.0" x2="715.0" y2="439.0" style="stroke:rgb(0,0,0);stroke-width:1"/>
<line x1="715.0" y1="439.0" x2="717.0" y2="438.0" style="stroke:rgb(0,0,0);stroke-width:1"/>
<line x1="717.0" y1="438.0" x2="719.0" y2="436.0" style="stroke:rgb(0,0,0);stroke-width:1"/>
<line x1="719.0" y1="436.0" x2="721.0" y2="435.0" style="stroke:rgb(0,0,0);stroke-width:1"/>
<line x1="721.0" y1="435.0" x2="723.0" y2="434.0" style="stroke:rgb(0,0,0);stroke-width:1"/>
<line x1="723.0" y1="434.0" x2="725.0" y2="432.0" style="stroke:rgb(0,0,0);stroke-width:1"/>
<line x1="725.0" y1="432.0" x2="727.0" y2="431.0" style="stroke:rgb(0,0,0);stroke-width:1"/>
<line x1="727.0" y1="431.0" x2="729.0" y2="429.0" style="stroke:rgb(0,0,0);stroke-width:1"/>
<line x1="729.0" y1="429.0" x2="731.0" y2="428.0" style="stroke:rgb(0,0,0);stroke-width:1"/>
<line x1="731.0" y1="428.0" x2="733.0" y2="426.0" style="stroke:rgb(0,0,0);stroke-width:1"/>
<line x1="733.0" y1="426.0" x2="735.0" y2="424.0" style="stroke:rgb(0,0,0);stroke-width:1"/>
<line x1="735.0" y1="424.0" x2="737.0" y2="423.0" style="stroke:rgb(0,0,0);stroke-width:1"/>
<line x1="737.0" y1="423.0" x2="739.0" y2="421.0" style="stroke:rgb(0,0,0);stroke-width:1"/>
<line x1="739.0" y1="421.0" x2="741.0" y2="419.0" style="stroke:rgb(0,0,0);stroke-width:1"/>
<line x1="741.0" y1="419.0" x2="743.0" y2="417.0" style="stroke:rgb(0,0,0);stroke-width:1"/>
<line x1="743.0" y1="417.0" x2="745.0" y2="416.0" style="stroke:rgb(0,0,0);stroke-width:1"/>
<line x1="745.0" y1="416.0" x2="747.0" y2="414.0" style="stroke:rgb(0,0,0);stroke-width:1"/>
<line x1="747.0" y1="414.0" x2="749.0" y2="412.0" style="stroke:rgb(0,0,0);stroke-width:1"/>
<line x1="749.0" y1="412.0" x2="751.0" y2="410.0" style="stroke:rgb(0,0,0);stroke-width:1"/>
<line x1="751.0" y1="410.0" x2="753.0" y2="407.0" style="stroke:rgb(0,0,0);stroke-width:1"/>
<line x1="753.0" y1="407.0" x2="755.0" y2="405.0" style="stroke:rgb(0,0,0);stroke-width:1"/>
<line x1="755.0" y1="405.0" x2="757.0" y2="403.0" style="stroke:rgb(0,0,0);stroke-width:1"/>
<line x1="757.0" y1="403.0" x2="759.0" y2="401.0" style="stroke:rgb(0,0,0);stroke-width:1"/>
<line x1="759.0" y1="401.0" x2="760.0" y2="399.0" style="stroke:rgb(0,0,0);stroke-width:1"/>
<line x1="760.0" y1="399.0" x2="762.0" y2="397.0" style="stroke:rgb(0,0,0);stroke-width:1"/>
<line x1="762.0" y1="397.0" x2="763.0" y2="395.0" style="stroke:rgb(0,0,0);stroke-width:1"/>
<line x1="763.0" y1="395.0" x2="765.0" y2="393.0" style="stroke:rgb(0,0,0);stroke-width:1"/>
<line x1="765.0" y1="393.0" x2="766.0" y2="391.0" style="stroke:rgb(0,0,0);stroke-width:1"/>
<line x1="766.0" y1="391.0" x2="768.0" y2="388.0" style="stroke:rgb(0,0,0);stroke-width:1"/>
<line x1="768.0" y1="388.0" x2="770.0" y2="385.0" style="stroke:rgb(0,0,0);stroke-width:1"/>
<line x1="770.0" y1="385.0" x2="772.0" y2="382.0" style="stroke:rgb(0,0,0);stroke-width:1"/>
<line x1="772.0" y1="382.0" x2="773.0" y2="380.0" style="stroke:rgb(0,0,0);stroke-width:1"/>
<line x1="773.0" y1="380.0" x2="775.0" y2="377.0" style="stroke:rgb(0,0,0);stroke-width:1"/>
<line x1="775.0" y1="377.0" x2="776.0" y2="375.0" style="stroke:rgb(0,0,0);stroke-width:1"/>
<line x1="776.0" y1="375.0" x2="777.0" y2="373.0" style="stroke:rgb(0,0,0);stroke-width:1"/>
<line x1="777.0" y1="373.0" x2="778.0" y2="371.0" style="stroke:rgb(0,0,0);stroke-width:1"/>
<line x1="778.0" y1="371.0" x2="779.0" y2="369.0" style="stroke:rgb(0,0,0);stroke-width:1"/>
<line x1="779.0" y1="369.0" x2="780.0" y2="366.0" style="stroke:rgb(0,0,0);stroke-width:1"/>
<line x1="780.0" y1="366.0" x2="781.0" y2="364.0" style="stroke:rgb(0,0,0);stroke-width:1"/>
<line x1="781.0" y1="364.0" x2="782.0" y2="361.0" style="stroke:rgb(0,0,0);stroke-width:1"/>
<line x1="782.0" y1="361.0" x2="783.0" y2="359.0" style="stroke:rgb(0,0,0);stroke-width:1"/>
<line x1="783.0" y1="359.0" x2="784.0" y2="356.0" style="stroke:rgb(0,0,0);stroke-width:1"/>
<line x1="784.0" y1="356.0" x2="785.0" y2="352.0" style="stroke:rgb(0,0,0);stroke-width:1"/>
<line x1="785.0" y1="352.0" x2="786.0" y2="349.0" style="stroke:rgb(0,0,0);stroke-width:1"/>
<line x1="786.0" y1="349.0" x2="787.0" y2="345.0" style="stroke:rgb(0,0,0);stroke-width:1"/>
<line x1="787.0" y1="345.0" x2="788.0" y2="340.0" style="stroke:rgb(0,0,0);stroke-width:1"/>
<line x1="788.0" y1="340.0" x2="789.0" y2="334.0" style="stroke:rgb(0,0,0);stroke-width:1"/>
<line x1="789.0" y1="334.0" x2="790.0" y2="322.0" style="stroke:rgb(0,0,0);stroke-width:1"/>
<line x1="291.0" y1="307.0" x2="291.0" y2="276.0" style="stroke:rgb(0,0,0);stroke-width:1"/>
<line x1="291.0" y1="276.0" x2="292.0" y2="269.0" style="stroke:rgb(0,0,0);stroke-width:1"/>
<line x1="292.0" y1="269.0" x2="293.0" y2="264.0" style="stroke:rgb(0,0,0);stroke-width:1"/>
<line x1="293.0" y1="264.0" x2="294.0" y2="260.0" style="stroke:rgb(0,0,0);stroke-width:1"/>
<line x1="294.0" y1="260.0" x2="295.0" y2="257.0" style="stroke:rgb(0,0,0);stroke-width:1"/>
<line x1="295.0" y1="257.0" x2="296.0" y2="254.0" style="stroke:rgb(0,0,0);stroke-width:1"/>
<line x1="296.0" y1="254.0" x2="297.0" y2="251.0" style="stroke:rgb(0,0,0);stroke-width:1"/>
<line x1="297.0" y1="251.0" x2="298.0" y2="248.0" style="stroke:rgb(0,0,0);stroke-width:1"/>
<line x1="298.0" y1="248.0" x2="299.0" y2="245.0" style="stroke:rgb(0,0,0);stroke-width:1"/>
<line x1="299.0" y1="245.0" x2="300.0" y2="243.0" style="stroke:rgb(0,0,0);stroke-width:1"/>
<line x1="300.0" y1="243.0" x2="301.0" y2="240.0" style="stroke:rgb(0,0,0);stroke-width:1"/>
<line x1="301.0" y1="240.0" x2="302.0" y2="238.0" style="stroke:rgb(0,0,0);stroke-width:1"/>
<line x1="302.0" y1="238.0" x2="303.0" y2="236.0" style="stroke:rgb(0,0,0);stroke-width:1"/>
<line x1="303.0" y1="236.0" x2="304.0" y2="234.0" style="stroke:rgb(0,0,0);stroke-width:1"/>
<line x1="304.0" y1="234.0" x2="305.0" y2="232.0" style="stroke:rgb(0,0,0);stroke-width:1"/>
<line x1="305.0" y1="232.0" x2="306.0" y2="230.0" style="stroke:rgb(0,0,0);stroke-width:1"/>
<line x1="306.0" y1="230.0" x2="308.0" y2="227.0" style="stroke:rgb(0,0,0);stroke-width:1"/>
<line x1="308.0" y1="227.0" x2="309.0" y2="225.0" style="stroke:rgb(0,0,0);stroke-width:1"/>
<line x1="309.0" y1="225.0" x2="311.0" y2="222.0" style="stroke:rgb(0,0,0);stroke-width:1"/>
<line x1="311.0" y1="222.0" x2="313.0" y2="219.0" style="stroke:rgb(0,0,0);stroke-width:1"/>
<line x1="313.0" y1="219.0" x2="315.0" y2="216.0" style="stroke:rgb(0,0,0);stroke-width:1"/>
<line x1="315.0" y1="216.0" x2="317.0" y2="213.0" style="stroke:rgb(0,0,0);stroke-width:1"/>
<line x1="317.0" y1="213.0" x2="319.0" y2="211.0" style="stroke:rgb(0,0,0);stroke-width:1"/>
<line x1="319.0" y1="211.0" x2="321.0" y2="208.0" style="stroke:rgb(0,0,0);stroke-width:1"/>
<line x1="321.0" y1="208.0" x2="323.0" y2="206.0" style="stroke:rgb(0,0,0);stroke-width:1"/>
<line x1="323.0" y1="206.0" x2="325.0" y2="204.0" style="stroke:rgb(0,0,0);stroke-width:1"/>
<line x1="325.0" y1="204.0" x2="327.0" y2="201.0" style="stroke:rgb(0,0,0);stroke-width:1"/>
<line x1="327.0" y1="201.0" x2="329.0" y2="199.0" style="stroke:rgb(0,0,0);stroke-width:1"/>
<line x1="329.0" y1="199.0" x2="331.0" y2="197.0" style="stroke:rgb(0,0,0);stroke-width:1"/>
<line x1="331.0" y1="197.0" x2="333.0" y2="195.0" style="stroke:rgb(0,0,0);stroke-width:1"/>
<line x1="333.0" y1="195.0" x2="335.0" y2="193.0" style="stroke:rgb(0,0,0);stroke-width:1"/>
<line x1="335.0" y1="193.0" x2="337.0" y2="191.0" style="stroke:rgb(0,0,0);stroke-width:1"/>
<line x1="337.0" y1="191.0" x2="339.0" y2="190.0" style="stroke:rgb(0,0,0);stroke-width:1"/>
<line x1="339.0" y1="190.0" x2="341.0" y2="188.0" style="stroke:rgb(0,0,0);stroke-width:1"/>
<line x1="341.0" y1="188.0" x2="343.0" y2="186.0" style="stroke:rgb(0,0,0);stroke-width:1"/>
<line x1="343.0" y1="186.0" x2="345.0" y2="184.0" style="stroke:rgb(0,0,0);stroke-width:1"/>
<line x1="345.0" y1="184.0" x2="347.0" y2="183.0" style="stroke:rgb(0,0,0);stroke-width:1"/>
<line x1="347.0" y1="183.0" x2="349.0" y2="181.0" style="stroke:rgb(0,0,0);stroke-width:1"/>
<line x1="349.0" y1="181.0" x2="351.0" y2="180.0" style="stroke:rgb(0,0,0);stroke-width:1"/>
<line x1="351.0" y1="180.0" x2="353.0" y2="178.0" style="stroke:rgb(0,0,0);stroke-width:1"/>
<line x1="353.0" y1="178.0" x2="355.0" y2="177.0" style="stroke:rgb(0,0,0);stroke-width:1"/>
<line x1="355.0" y1="177.0" x2="357.0" y2="175.0" style="stroke:rgb(0,0,0);stroke-width:1"/>
<line x1="357.0" y1="175.0" x2="359.0" y2="174.0" style="stroke:rgb(0,0,0);stroke-width:1"/>
<line x1="359.0" y1="174.0" x2="361.0" y2="173.0" style="stroke:rgb(0,0,0);stroke-width:1"/>
<line x1="361.0" y1="173.0" x2="363.0" y2="171.0" style="stroke:rgb(0,0,0);stroke-width:1"/>
<line x1="363.0" y1="171.0" x2="365.0" y2="170.0" style="stroke:rgb(0,0,0);stroke-width:1"/>
<line x1="365.0" y1="170.0" x2="367.0" y2="169.0" style="stroke:rgb(0,0,0);stroke-width:1"/>
<line x1="367.0" y1="169.0" x2="369.0" y2="167.0" style="stroke:rgb(0,0,0);stroke-width:1"/>
<line x1="369.0" y1="167.0" x2="371.0" y2="166.0" style="stroke:rgb(0,0,0);stroke-width:1"/>
<line x1="371.0" y1="166.0" x2="373.0" y2="165.0" style="stroke:rgb(0,0,0);stroke-width:1"/>
<line x1="373.0" y1="165.0" x2="375.0" y2="164.0" style="stroke:rgb(0,0,0);stroke-width:1"/>
<line x1="375.0" y1="164.0" x2="377.0" y2="163.0" style="stroke:rgb(0,0,0);stroke-width:1"/>
<line x1="377.0" y1="163.0" x2="379.0" y2="162.0" style="stroke:rgb(0,0,0);stroke-width:1"/>
<line x1="379.0" y1="162.0" x2="381.0" y2="161.0" style="stroke:rgb(0,0,0);stroke-width:1"/>
<line x1="381.0" y1="161.0" x2="383.0" y2="160.0" style="stroke:rgb(0,0,0);stroke-width:1"/>
<line x1="383.0" y1="160.0" x2="385.0" y2="159.0" style="stroke:rgb(0,0,0);stroke-width:1"/>
<line x1="385.0" y1="159.0" x2="387.0" y2="158.0" style="stroke:rgb(0,0,0);stroke-width:1"/>
<line x1="387.0" y1="158.0" x2="389.0" y2="157.0" style="stroke:rgb(0,0,0);stroke-width:1"/>
<line x1="389.0" y1="157.0" x2="391.0" y2="156.0" style="stroke:rgb(0,0,0);stroke-width:1"/>
<line x1="391.0" y1="156.0" x2="393.0" y2="155.0" style="stroke:rgb(0,0,0);stroke-width:1"/>
<line x1="393.0" y1="155.0" x2="395.0" y2="154.0" style="stroke:rgb(0,0,0);stroke-width:1"/>
<line x1="395.0" y1="154.0" x2="397.0" y2="153.0" style="stroke:rgb(0,0,0);stroke-width:1"/>
<line x1="397.0" y1="153.0" x2="399.0" y2="152.0" style="stroke:rgb(0,0,0);stroke-width:1"/>
<line x1="399.0" y1="152.0" x2="401.0" y2="151.0" style="stroke:rgb(0,0,0);stroke-width:1"/>
<line x1="401.0" y1="151.0" x2="403.0" y2="150.0" style="stroke:rgb(0,0,0);stroke-width:1"/>
<line x1="403.0" y1="150.0" x2="406.0" y2="149.0" style="stroke:rgb(0,0,0);stroke-width:1"/>
<line x1="406.0" y1="149.0" x2="408.0" y2="148.0" style="stroke:rgb(0,0,0);stroke-width:1"/>
<line x1="408.0" y1="148.0" x2="411.0" y2="147.0" style="stroke:rgb(0,0,0);stroke-width:1"/>
<line x1="411.0" y1="147.0" x2="414.0" y2="146.0" style="stroke:rgb(0,0,0);stroke-width:1"/>
<line x1="414.0" y1="146.0" x2="416.0" y2="145.0" style="stroke:rgb(0,0,0);stroke-width:1"/>
<line x1="416.0" y1="145.0" x2="419.0" y2="144.0" style="stroke:rgb(0,0,0);stroke-width:1"/>
<line x1="419.0" y1="144.0" x2="422.0" y2="143.0" style="stroke:rgb(0,0,0);stroke-width:1"/>
<line x1="422.0" y1="143.0" x2="425.0" y2="143.0" style="stroke:rgb(0,0,0);stroke-width:1"/>
<line x1="425.0" y1="143.0" x2="427.0" y2="142.0" style="stroke:rgb(0,0,0);stroke-width:1"/>
<line x1="427.0" y1="142.0" x2="429.0" y2="141.0" style="stroke:rgb(0,0,0);stroke-width:1"/>
<line x1="429.0" y1="141.0" x2="432.0" y2="140.0" style="stroke:rgb(0,0,0);stroke-width:1"/>
<line x1="432.0" y1="140.0" x2="435.0" y2="140.0" style="stroke:rgb(0,0,0);stroke-width:1"/>
<line x1="435.0" y1="140.0" x2="437.0" y2="139.0" style="stroke:rgb(0,0,0);stroke-width:1"/>
<line x1="437.0" y1="139.0" x2="440.0" y2="138.0" style="stroke:rgb(0,0,0);stroke-width:1"/>
<line x1="440.0" y1="138.0" x2="443.0" y2="138.0" style="stroke:rgb(0,0,0);stroke-width:1"/>
<line x1="443.0" y1="138.0" x2="445.0" y2="137.0" style="stroke:rgb(0,0,0);stroke-width:1"/>
<line x1="445.0" y1="137.0" x2="448.0" y2="136.0" style="stroke:rgb(0,0,0);stroke-width:1"/>
<line x1="448.0" y1="136.0" x2="451.0" y2="136.0" style="stroke:rgb(0,0,0);stroke-width:1"/>
<line x1="451.0" y1="136.0" x2="453.0" y2="135.0" style="stroke:rgb(0,0,0);stroke-width:1"/>
<line x1="453.0" y1="135.0" x2="456.0" y2="135.0" style="stroke:rgb(0,0,0);stroke-width:1"/>
<line x1="456.0" y1="135.0" x2="458.0" y2="134.0" style="stroke:rgb(0,0,0);stroke-width:1"/>
<line x1="458.0" y1="134.0" x2="461.0" y2="134.0" style="stroke:rgb(0,0,0);stroke-width:1"/>
<line x1="461.0" y1="134.0" x2="463.0" y2="133.0" style="stroke:rgb(0,0,0);stroke-width:1"/>
<line x1="463.0" y1="133.0" x2="466.0" y2="133.0" style="stroke:rgb(0,0,0);stroke-width:1"/>
<line x1="466.0" y1="133.0" x2="468.0" y2="132.0" style="stroke:rgb(0,0,0);stroke-width:1"/>
<line x1="468.0" y1="132.0" x2="471.0" y2="132.0" style="stroke:rgb(0,0,0);stroke-width:1"/>
<line x1="471.0" y1="132.0" x2="474.0" y2="132.0" style="stroke:rgb(0,0,0);stroke-width:1"/>
<line x1="474.0" y1="132.0" x2="476.0" y2="131.0" style="stroke:rgb(0,0,0);stroke-width:1"/>
<line x1="476.0" y1="131.0" x2="479.0" y2="131.0" style="stroke:rgb(0,0,0);stroke-width:1"/>
<line x1="479.0" y1="131.0" x2="482.0" y2="131.0" style="stroke:rgb(0,0,0);stroke-width:1"/>
<line x1="482.0" y1="131.0" x2="484.0" y2="130.0" style="stroke:rgb(0,0,0);stroke-width:1"/>
<line x1="484.0" y1="130.0" x2="487.0" y2="130.0" style="stroke:rgb(0,0,0);stroke-width:1"/>
<line x1="487.0" y1="130.0" x2="490.0" y2="130.0" style="stroke:rgb(0,0,0);stroke-width:1"/>
<line x1="490.0" y1="130.0" x2="493.0" y2="129.0" style="stroke:rgb(0,0,0);stroke-width:1"/>
<line x1="493.0" y1="129.0" x2="496.0" y2="129.0" style="stroke:rgb(0,0,0);stroke-width:1"/>
<line x1="496.0" y1="129.0" x2="499.0" y2="129.0" style="stroke:rgb(0,0,0);stroke-width:1"/>
<line x1="499.0" y1="129.0" x2="502.0" y2="129.0" style="stroke:rgb(0,0,0);stroke-width:1"/>
<line x1="502.0" y1="129.0" x2="505.0" y2="129.0" style="stroke:rgb(0,0,0);stroke-width:1"/>
<line x1="505.0" y1="129.0" x2="508.0" y2="129.0" style="stroke:rgb(0,0,0);stroke-width:1"/>
<line x1="508.0" y1="129.0" x2="511.0" y2="128.0" style="stroke:rgb(0,0,0);stroke-width:1"/>
<line x1="511.0" y1="128.0" x2="514.0" y2="128.0" style="stroke:rgb(0,0,0);stroke-width:1"/>
<line x1="514.0" y1="128.0" x2="517.0" y2="128.0" style="stroke:rgb(0,0,0);stroke-width:1"/>
<line x1="517.0" y1="128.0" x2="520.0" y2="128.0" style="stroke:rgb(0,0,0);stroke-width:1"/>
<line x1="520.0" y1="128.0" x2="523.0" y2="128.0" style="stroke:rgb(0,0,0);stroke-width:1"/>
<line x1="523.0" y1="128.0" x2="526.0" y2="128.0" style="stroke:rgb(0,0,0);stroke-width:1"/>
<line x1="526.0" y1="128.0" x2="529.0" y2="128.0" style="stroke:rgb(0,0,0);stroke-width:1"/>
<line x1="529.0" y1="128.0" x2="532.0" y2="128.0" style="stroke:rgb(0,0,0);stroke-width:1"/>
<line x1="532.0" y1="128.0" x2="534.0" y2="129.0" style="stroke:rgb(0,0,0);stroke-width:1"/>
<line x1="534.0" y1="129.0" x2="537.0" y2="129.0" style="stroke:rgb(0,0,0);stroke-width:1"/>
<line x1="537.0" y1="129.0" x2="540.0" y2="129.0" style="stroke:rgb(0,0,0);stroke-width:1"/>
<line x1="540.0" y1="129.0" x2="543.0" y2="129.0" style="stroke:rgb(0,0,0);stroke-width:1"/>
<line x1="543.0" y1="129.0" x2="546.0" y2="129.0" style="stroke:rgb(0,0,0);stroke-width:1"/>
<line x1="546.0" y1="129.0" x2="549.0" y2="129.0" style="stroke:rgb(0,0,0);stroke-width:1"/>
<line x1="549.0" y1="129.0" x2="551.0" y2="130.0" style="stroke:rgb(0,0,0);stroke-width:1"/>
<line x1="551.0" y1="130.0" x2="554.0" y2="130.0" style="stroke:rgb(0,0,0);stroke-width:1"/>
<line x1="554.0" y1="130.0" x2="557.0" y2="130.0" style="stroke:rgb(0,0,0);stroke-width:1"/>
<line x1="557.0" y1="130.0" x2="560.0" y2="130.0" style="stroke:rgb(0,0,0);stroke-width:1"/>
<line x1="560.0" y1="130.0" x2="562.0" y2="131.0" style="stroke:rgb(0,0,0);stroke-width:1"/>
<line x1="562.0" y1="131.0" x2="565.0" y2="131.0" style="stroke:rgb(0,0,0);stroke-width:1"/>
<line x1="565.0" y1="131.0" x2="568.0" y2="131.0" style="stroke:rgb(0,0,0);stroke-width:1"/>
<line x1="568.0" y1="131.0" x2="570.0" y2="132.0" style="stroke:rgb(0,0,0);stroke-width:1"/>
<line x1="570.0" y1="132.0" x2="573.0" y2="132.0" style="stroke:rgb(0,0,0);stroke-width:1"/>
<line x1="573.0" y1="132.0" x2="576.0" y2="132.0" style="stroke:rgb(0,0,0);stroke-width:1"/>
<line x1="576.0" y1="132.0" x2="578.0" y2="133.0" style="stroke:rgb(0,0,0);stroke-width:1"/>
<line x1="578.0" y1="133.0" x2="581.0" y2="133.0" style="stroke:rgb(0,0,0);stroke-width:1"/>
<line x1="581.0" y1="133.0" x2="583.0" y2="134.0" style="stroke:rgb(0,0,0);stroke-width:1"/>
<line x1="583.0" y1="134.0" x2="586.0" y2="134.0" style="stroke:rgb(0,0,0);stroke-width:1"/>
<line x1="586.0" y1="134.0" x2="588.0" y2="135.0" style="stroke:rgb(0,0,0);stroke-width:1"/>
<line x1="588.0" y1="135.0" x2="591.0" y2="135.0" style="stroke:rgb(0,0,0);stroke-width:1"/>
<line x1="591.0" y1="135.0" x2="593.0" y2="136.0" style="stroke:rgb(0,0,0);stroke-width:1"/>
<line x1="593.0" y1="136.0" x2="596.0" y2="136.0" style="stroke:rgb(0,0,0);stroke-width:1"/>
<line x1="596.0" y1="136.0" x2="598.0" y2="137.0" style="stroke:rgb(0,0,0);stroke-width:1"/>
<line x1="598.0" y1="137.0" x2="601.0" y2="137.0" style="stroke:rgb(0,0,0);stroke-width:1"/>
<line x1="601.0" y1="137.0" x2="603.0" y2="138.0" style="stroke:rgb(0,0,0);stroke-width:1"/>
<line x1="603.0" y1="138.0" x2="606.0" y2="138.0" style="stroke:rgb(0,0,0);stroke-width:1"/>
<line x1="606.0" y1="138.0" x2="608.0" y2="139.0" style="stroke:rgb(0,0,0);stroke-width:1"/>
<line x1="608.0" y1="139.0" x2="611.0" y2="140.0" style="stroke:rgb(0,0,0);stroke-width:1"/>
<line x1="611.0" y1="140.0" x2="614.0" y2="140.0" style="stroke:rgb(0,0,0);stroke-width:1"/>
<line x1="614.0" y1="140.0" x2="616.0" y2="141.0" style="stroke:rgb(0,0,0);stroke-width:1"/>
<line x1="616.0" y1="141.0" x2="618.0" y2="142.0" style="stroke:rgb(0,0,0);stroke-width:1"/>
<line x1="618.0" y1="142.0" x2="621.0" y2="142.0" style="stroke:rgb(0,0,0);stroke-width:1"/>
<line x1="621.0" y1="142.0" x2="623.0" y2="143.0" style="stroke:rgb(0,0,0);stroke-width:1"/>
<line x1="623.0" y1="143.0" x2="625.0" y2="144.0" style="stroke:rgb(0,0,0);stroke-width:1"/>
<line x1="625.0" y1="144.0" x2="628.0" y2="145.0" style="stroke:rgb(0,0,0);stroke-width:1"/>
<line x1="628.0" y1="145.0" x2="631.0" y2="146.0" style="stroke:rgb(0,0,0);stroke-width:1"/>
<line x1="631.0" y1="146.0" x2="634.0" y2="147.0" style="stroke:rgb(0,0,0);stroke-width:1"/>
<line x1="634.0" y1="147.0" x2="637.0" y2="148.0" style="stroke:rgb(0,0,0);stroke-width:1"/>
<line x1="637.0" y1="148.0" x2="640.0" y2="149.0" style="stroke:rgb(0,0,0);stroke-width:1"/>
<line x1="640.0" y1="149.0" x2="643.0" y2="150.0" style="stroke:rgb(0,0,0);stroke-width:1"/>
<line x1="643.0" y1="150.0" x2="646.0" y2="151.0" style="stroke:rgb(0,0,0);stroke-width:1"/>
<line x1="646.0" y1="151.0" x2="648.0" y2="152.0" style="stroke:rgb(0,0,0);stroke-width:1"/>
<line x1="648.0" y1="152.0" x2="651.0" y2="153.0" style="stroke:rgb(0,0,0);stroke-width:1"/>
<line x1="651.0" y1="153.0" x2="653.0" y2="154.0" style="stroke:rgb(0,0,0);stroke-width:1"/>
<line x1="653.0" y1="154.0" x2="656.0" y2="155.0" style="stroke:rgb(0,0,0);stroke-width:1"/>
<line x1="656.0" y1="155.0" x2="658.0" y2="156.0" style="stroke:rgb(0,0,0);stroke-width:1"/>
<line x1="658.0" y1="156.0" x2="660.0" y2="157.0" style="stroke:rgb(0,0,0);stroke-width:1"/>
<line x1="660.0" y1="157.0" x2="663.0" y2="158.0" style="stroke:rgb(0,0,0);stroke-width:1"/>
<line x1="663.0" y1="158.0" x2="665.0" y2="159.0" style="stroke:rgb(0,0,0);stroke-width:1"/>
<line x1="665.0" y1="159.0" x2="667.0" y2="160.0" style="stroke:rgb(0,0,0);stroke-width:1"/>
<line x1="667.0" y1="160.0" x2="669.0" y2="161.0" style="stroke:rgb(0,0,0);stroke-width:1"/>
<line x1="669.0" y1="161.0" x2="671.0" y2="162.0" style="stroke:rgb(0,0,0);stroke-width:1"/>
<line x1="671.0" y1="162.0" x2="673.0" y2="163.0" style="stroke:rgb(0,0,0);stroke-width:1"/>
<line x1="673.0" y1="163.0" x2="675.0" y2="164.0" style="stroke:rgb(0,0,0);stroke-width:1"/>
<line x1="675.0" y1="164.0" x2="677.0" y2="165.0" style="stroke:rgb(0,0,0);stroke-width:1"/>
<line x1="677.0" y1="165.0" x2="679.0" y2="166.0" style="stroke:rgb(0,0,0);stroke-width:1"/>
<line x1="679.0" y1="166.0" x2="681.0" y2="167.0" style="stroke:rgb(0,0,0);stroke-width:1"/>
<line x1="681.0" y1="167.0" x2="683.0" y2="168.0" style="stroke:rgb(0,0,0);stroke-width:1"/>
<line x1="683.0" y1="168.0" x2="685.0" y2="169.0" style="stroke:rgb(0,0,0);stroke-width:1"/>
<line x1="685.0" y1="169.0" x2="687.0" y2="170.0" style="stroke:rgb(0,0,0);stroke-width:1"/>
<line x1="687.0" y1="170.0" x2="689.0" y2="171.0" style="stroke:rgb(0,0,0);stroke-width:1"/>
<line x1="689.0" y1="171.0" x2="691.0" y2="172.0" style="stroke:rgb(0,0,0);stroke-width:1"/>
<line x1="691.0" y1="172.0" x2="693.0" y2="173.0" style="stroke:rgb(0,0,0);stroke-width:1"/>
<line x1="693.0" y1="173.0" x2="695.0" y2="175.0" style="stroke:rgb(0,0,0);stroke-width:1"/>
<line x1="695.0" y1="175.0" x2="697.0" y2="176.0" style="stroke:rgb(0,0,0);stroke-width:1"/>
<line x1="697.0" y1="176.0" x2="699.0" y2="177.0" style="stroke:rgb(0,0,0);stroke-width:1"/>
<line x1="699.0" y1="177.0" x2="701.0" y2="178.0" style="stroke:rgb(0,0,0);stroke-width:1"/>
<line x1="701.0" y1="178.0" x2="703.0" y2="180.0" style="stroke:rgb(0,0,0);stroke-width:1"/>
<line x1="703.0" y1="180.0" x2="705.0" y2="181.0" style="stroke:rgb(0,0,0);stroke-width:1"/>
<line x1="705.0" y1="181.0" x2="707.0" y2="182.0" style="stroke:rgb(0,0,0);stroke-width:1"/>
<line x1="707.0" y1="182.0" x2="709.0" y2="184.0" style="stroke:rgb(0,0,0);stroke-width:1"/>
<line x1="709.0" y1="184.0" x2="711.0" y2="185.0" style="stroke:rgb(0,0,0);stroke-width:1"/>
<line x1="711.0" y1="185.0" x2="713.0" y2="187.0" style="stroke:rgb(0,0,0);stroke-width:1"/>
<line x1="713.0" y1="187.0" x2="715.0" y2="188.0" style="stroke:rgb(0,0,0);stroke-width:1"/>
<line x1="715.0" y1="188.0" x2="717.0" y2="190.0" style="stroke:rgb(0,0,0);stroke-width:1"/>
<line x1="717.0" y1="190.0" x2="719.0" y2="191.0" style="stroke:rgb(0,0,0);stroke-width:1"/>
<line x1="719.0" y1="191.0" x2="721.0" y2="193.0" style="stroke:rgb(0,0,0);stroke-width:1"/>
<line x1="721.0" y1="193.0" x2="723.0" y2="194.0" style="stroke:rgb(0,0,0);stroke-width:1"/>
<line x1="723.0" y1="194.0" x2="725.0" y2="196.0" style="stroke:rgb(0,0,0);stroke-width:1"/>
<line x1="725.0" y1="196.0" x2="727.0" y2="197.0" style="stroke:rgb(0,0,0);stroke-width:1"/>
<line x1="727.0" y1="197.0" x2="729.0" y2="199.0" style="stroke:rgb(0,0,0);stroke-width:1"/>
<line x1="729.0" y1="199.0" x2="731.0" y2="201.0" style="stroke:rgb(0,0,0);stroke-width:1"/>
<line x1="731.0" y1="201.0" x2="733.0" y2="203.0" style="stroke:rgb(0,0,0);stroke-width:1"/>
<line x1="733.0" y1="203.0" x2="735.0" y2="205.0" style="stroke:rgb(0,0,0);stroke-width:1"/>
<line x1="735.0" y1="205.0" x2="737.0" y2="206.0" style="stroke:rgb(0,0,0);stroke-width:1"/>
<line x1="737.0" y1="206.0" x2="739.0" y2="208.0" style="stroke:rgb(0,0,0);stroke-width:1"/>
<line x1="739.0" y1="208.0" x2="741.0" y2="210.0" style="stroke:rgb(0,0,0);stroke-width:1"/>
<line x1="741.0" y1="210.0" x2="743.0" y2="212.0" style="stroke:rgb(0,0,0);stroke-width:1"/>
<line x1="743.0" y1="212.0" x2="745.0" y2="214.0" style="stroke:rgb(0,0,0);stroke-width:1"/>
<line x1="745.0" y1="214.0" x2="747.0" y2="217.0" style="stroke:rgb(0,0,0);stroke-width:1"/>
<line x1="747.0" y1="217.0" x2="749.0" y2="219.0" style="stroke:rgb(0,0,0);stroke-width:1"/>
<line x1="749.0" y1="219.0" x2="751.0" y2="221.0" style="stroke:rgb(0,0,0);stroke-width:1"/>
<line x1="751.0" y1="221.0" x2="753.0" y2="223.0" style="stroke:rgb(0,0,0);stroke-width:1"/>
<line x1="753.0" y1="223.0" x2="754.0" y2="225.0" style="stroke:rgb(0,0,0);stroke-width:1"/>
<line x1="754.0" y1="225.0" x2="756.0" y2="227.0" style="stroke:rgb(0,0,0);stroke-width:1"/>
<line x1="756.0" y1="227.0" x2="758.0" y2="230.0" style="stroke:rgb(0,0,0);stroke-width:1"/>
<line x1="758.0" y1="230.0" x2="760.0" y2="232.0" style="stroke:rgb(0,0,0);stroke-width:1"/>
<line x1="760.0" y1="232.0" x2="761.0" y2="234.0" style="stroke:rgb(0,0,0);stroke-width:1"/>
<line x1="761.0" y1="234.0" x2="763.0" y2="236.0" style="stroke:rgb(0,0,0);stroke-width:1"/>
<line x1="763.0" y1="236.0" x2="764.0" y2="238.0" style="stroke:rgb(0,0,0);stroke-width:1"/>
<line x1="764.0" y1="238.0" x2="766.0" y2="241.0" style="stroke:rgb(0,0,0);stroke-width:1"/>
<line x1="766.0" y1="241.0" x2="768.0" y2="244.0" style="stroke:rgb(0,0,0);stroke-width:1"/>
<line x1="768.0" y1="244.0" x2="769.0" y2="246.0" style="stroke:rgb(0,0,0);stroke-width:1"/>
<line x1="769.0" y1="246.0" x2="771.0" y2="249.0" style="stroke:rgb(0,0,0);stroke-width:1"/>
<line x1="771.0" y1="249.0" x2="772.0" y2="251.0" style="stroke:rgb(0,0,0);stroke-width:1"/>
<line x1="772.0" y1="251.0" x2="773.0" y2="253.0" style="stroke:rgb(0,0,0);stroke-width:1"/>
<line x1="773.0" y1="253.0" x2="774.0" y2="255.0" style="stroke:rgb(0,0,0);stroke-width:1"/>
<line x1="774.0" y1="255.0" x2="775.0" y2="257.0" style="stroke:rgb(0,0,0);stroke-width:1"/>
<line x1="775.0" y1="257.0" x2="776.0" y2="259.0" style="stroke:rgb(0,0,0);stroke-width:1"/>
<line x1="776.0" y1="259.0" x2="777.0" y2="261.0" style="stroke:rgb(0,0,0);stroke-width:1"/>
<line x1="777.0" y1="261.0" x2="778.0" y2="263.0" style="stroke:rgb(0,0,0);stroke-width:1"/>
<line x1="778.0" y1="263.0" x2="779.0" y2="265.0" style="stroke:rgb(0,0,0);stroke-width:1"/>
<line x1="779.0" y1="265.0" x2="780.0" y2="267.0" style="stroke:rgb(0,0,0);stroke-width:1"/>
<line x1="780.0" y1="267.0" x2="781.0" y2="270.0" style="stroke:rgb(0,0,0);stroke-width:1"/>
<line x1="781.0" y1="270.0" x2="782.0" y2="273.0" style="stroke:rgb(0,0,0);stroke-width:1"/>
<line x1="782.0" y1="273.0" x2="783.0" y2="275.0" style="stroke:rgb(0,0,0);stroke-width:1"/>
<line x1="783.0" y1="275.0" x2="784.0" y2="279.0" style="stroke:rgb(0,0,0);stroke-width:1"/>
<line x1="784.0" y1="279.0" x2="785.0" y2="282.0" style="stroke:rgb(0,0,0);stroke-width:1"/>
<line x1="785.0" y1="282.0" x2="786.0" y2="286.0" style="stroke:rgb(0,0,0);stroke-width:1"/>
<line x1="786.0" y1="286.0" x2="787.0" y2="290.0" style="stroke:rgb(0,0,0);stroke-width:1"/>
<line x1="787.0" y1="290.0" x2="788.0" y2="295.0" style="stroke:rgb(0,0,0);stroke-width:1"/>
<line x1="788.0" y1="295.0" x2="789.0" y2="301.0" style="stroke:rgb(0,0,0);stroke-width:1"/>
<line x1="789.0" y1="301.0" x2="790.0" y2="313.0" style="stroke:rgb(0,0,0);stroke-width:1"/>
<line x1="790.0" y1="322.0" x2="790.0" y2="313.0" style="stroke:rgb(0,0,0);stroke-width:1"/>
<path d="M 358.59585653815515 283.2198446046498 H 363.59585653815515 V 288.2198446046498 H 358.59585653815515 Z" style="fill:none;stroke:rgb(0,0,0);stroke-width:1"/>
<text x="367.59585653815515" y="304.2198446046498" style="font-size:0;fill:rgb(0,0,0);font-weight:normal">A</text><path d="M 715.5007583234536 319.56717965543635 H 720.5007583234536 V 324.56717965543635 H 715.5007583234536 Z" style="fill:none;stroke:rgb(0,0,0);stroke-width:1"/>
<text x="724.5007583234536" y="340.56717965543635" style="font-size:0;fill:rgb(0,0,0);font-weight:normal">B</text><path d="M 659.2788502673471 154.54037827478987 H 664.2788502673471 V 159.54037827478987 H 659.2788502673471 Z" style="fill:none;stroke:rgb(0,0,0);stroke-width:1"/>
<text x="663.0" y="148.0" style="font-size:0;fill:rgb(0,0,0);font-weight:normal">P</text><line x1="1834.0" y1="678.0" x2="-467.0" y2="-346.0" style="stroke:rgb(0,0,178);stroke-width:1"/>
<line x1="662.2788502673471" y1="157.54037827478987" x2="361.59585653815515" y2="286.2198446046498" style="stroke:rgb(0,0,0);stroke-width:1"/>
<line x1="662.2788502673471" y1="157.54037827478987" x2="718.5007583234536" y2="322.56717965543635" style="stroke:rgb(0,0,0);stroke-width:1"/>
<path d="M 629.0 143.0 A 36.0 36.0 0 0 0 629.0 172.0" style="stroke:rgb(0,0,178);stroke-width:1;fill:none"/>
<path d="M 674.0 192.0 A 36.0 36.0 0 0 0 695.0 172.0" style="stroke:rgb(0,0,178);stroke-width:1;fill:none"/>
</svg>
